<?xml version="1.0" encoding="UTF-8"?>
<svg width="421px" height="152px" viewBox="0 0 421 152" version="1.1" xmlns="http://www.w3.org/2000/svg" xmlns:xlink="http://www.w3.org/1999/xlink">
    <!-- Generator: Sketch 51.2 (57519) - http://www.bohemiancoding.com/sketch -->
    <title>by value</title>
    <desc>Created with Sketch.</desc>
    <defs></defs>
    <g id="by-value" stroke="none" stroke-width="1" fill="none" fill-rule="evenodd">
        <rect fill="#FFFFFF" x="0" y="0" width="421" height="152"></rect>
        <path d="M118.186279,73.671875 L118.186279,73.6425781 C118.186279,73.4814445 118.232666,73.3630375 118.325439,73.2873535 C118.418213,73.2116695 118.562255,73.1738281 118.757568,73.1738281 C118.957765,73.1738281 119.095703,73.2324213 119.171387,73.3496094 C119.247071,73.4667975 119.284912,73.7084943 119.284912,74.074707 L119.284912,75.4370117 C119.284912,75.6176767 119.238526,75.7531734 119.145752,75.8435059 C119.052978,75.9338383 118.913819,75.9790039 118.728271,75.9790039 C118.596435,75.9790039 118.482911,75.9411625 118.387695,75.8654785 C118.29248,75.7897945 118.176514,75.6323254 118.039795,75.3930664 C117.805419,74.9975566 117.520998,74.6984873 117.186523,74.4958496 C116.852049,74.2932119 116.467531,74.1918945 116.032959,74.1918945 C115.271236,74.1918945 114.652346,74.4165017 114.17627,74.8657227 C113.700193,75.3149437 113.462158,75.8959925 113.462158,76.6088867 C113.462158,77.3364294 113.690427,77.9309059 114.146973,78.392334 C114.603518,78.8537621 115.19067,79.0844727 115.908447,79.0844727 C116.235597,79.0844727 116.546874,79.0393071 116.842285,78.9489746 C117.137697,78.8586421 117.417235,78.7231454 117.680908,78.5424805 C117.773682,78.4838864 117.898193,78.3935553 118.054443,78.2714844 C118.371828,78.012694 118.620849,77.8833008 118.801514,77.8833008 C118.952882,77.8833008 119.076171,77.9309077 119.171387,78.026123 C119.266602,78.1213384 119.314209,78.2446281 119.314209,78.3959961 C119.314209,78.7817402 118.949222,79.1760234 118.219238,79.5788574 C117.489254,79.9816915 116.714115,80.1831055 115.893799,80.1831055 C114.834223,80.1831055 113.951664,79.8437534 113.246094,79.1650391 C112.540524,78.4863247 112.187744,77.6391652 112.187744,76.6235352 C112.187744,75.6079051 112.539303,74.7595249 113.242432,74.0783691 C113.94556,73.3972134 114.824458,73.0566406 115.87915,73.0566406 C116.250246,73.0566406 116.622557,73.106689 116.996094,73.2067871 C117.369631,73.3068853 117.766355,73.461913 118.186279,73.671875 Z M126.609131,76.7626953 C126.340575,76.6748042 126.080568,76.6101076 125.829102,76.5686035 C125.577635,76.5270994 125.327394,76.5063477 125.078369,76.5063477 C124.326412,76.5063477 123.733156,76.6332995 123.298584,76.887207 C122.864011,77.1411146 122.646729,77.482908 122.646729,77.9125977 C122.646729,78.2446306 122.782225,78.5180653 123.053223,78.7329102 C123.32422,78.947755 123.669676,79.0551758 124.0896,79.0551758 C124.70972,79.0551758 125.284665,78.8928239 125.814453,78.5681152 C126.344241,78.2434066 126.609131,77.9052752 126.609131,77.5537109 L126.609131,76.7626953 Z M126.667725,79.0698242 C126.267332,79.4311542 125.831545,79.7070303 125.360352,79.8974609 C124.889158,80.0878916 124.404544,80.1831055 123.906494,80.1831055 C123.178951,80.1831055 122.591799,79.9804708 122.14502,79.5751953 C121.69824,79.1699198 121.474854,78.6425814 121.474854,77.9931641 C121.474854,77.2216758 121.771481,76.6235373 122.364746,76.1987305 C122.958011,75.7739237 123.791743,75.5615234 124.865967,75.5615234 C125.149171,75.5615234 125.434813,75.5798338 125.7229,75.6164551 C126.010988,75.6530764 126.306395,75.7104488 126.609131,75.7885742 L126.609131,75.7373047 C126.609131,75.1757784 126.474855,74.7607435 126.206299,74.4921875 C125.937743,74.2236315 125.520267,74.0893555 124.953857,74.0893555 C124.572996,74.0893555 124.148196,74.1918935 123.679443,74.3969727 C123.210691,74.6020518 122.900636,74.7045898 122.749268,74.7045898 C122.607665,74.7045898 122.490479,74.6472174 122.397705,74.5324707 C122.304931,74.417724 122.258545,74.2700204 122.258545,74.0893555 C122.258545,73.8012681 122.528318,73.5571299 123.067871,73.3569336 C123.607425,73.1567373 124.297115,73.0566406 125.136963,73.0566406 C125.996342,73.0566406 126.64575,73.2751443 127.085205,73.7121582 C127.52466,74.1491721 127.744385,74.7949176 127.744385,75.6494141 L127.744385,78.9672852 L128.103271,78.9672852 C128.449953,78.9672852 128.681884,79.0039059 128.799072,79.0771484 C128.91626,79.150391 128.974854,79.2822256 128.974854,79.4726562 C128.974854,79.6484384 128.926026,79.780273 128.828369,79.8681641 C128.730712,79.9560551 128.584229,80 128.388916,80 L127.239014,80 C127.102294,80 126.989991,79.9584965 126.9021,79.8754883 C126.814209,79.7924801 126.755615,79.6728523 126.726318,79.5166016 L126.667725,79.0698242 Z M133.493896,71.4672852 L132.248779,71.4672852 C131.775144,71.4672852 131.478516,71.4294437 131.358887,71.3537598 C131.239257,71.2780758 131.179443,71.1401377 131.179443,70.9399414 C131.179443,70.7641593 131.229492,70.6323247 131.32959,70.5444336 C131.429688,70.4565425 131.57495,70.4125977 131.765381,70.4125977 L134.182373,70.4125977 C134.31421,70.4125977 134.416748,70.4394529 134.48999,70.4931641 C134.563233,70.5468753 134.599854,70.6201167 134.599854,70.7128906 L134.599854,78.9672852 L136.899658,78.9672852 C137.085206,78.9672852 137.220703,79.007568 137.306152,79.0881348 C137.391602,79.1687016 137.434326,79.2968741 137.434326,79.4726562 C137.434326,79.6728526 137.392823,79.8107906 137.309814,79.8864746 C137.226806,79.9621586 137.070558,80 136.841064,80 L131.435791,80 C131.24536,80 131.100098,79.9560551 131,79.8681641 C130.899902,79.780273 130.849854,79.6484384 130.849854,79.4726562 C130.849854,79.301757 130.901123,79.1748051 131.003662,79.0917969 C131.106202,79.0087886 131.260009,78.9672852 131.465088,78.9672852 L133.493896,78.9672852 L133.493896,71.4672852 Z M145.190674,73.671875 L145.190674,73.6425781 C145.190674,73.4814445 145.23706,73.3630375 145.329834,73.2873535 C145.422608,73.2116695 145.566649,73.1738281 145.761963,73.1738281 C145.962159,73.1738281 146.100097,73.2324213 146.175781,73.3496094 C146.251465,73.4667975 146.289307,73.7084943 146.289307,74.074707 L146.289307,75.4370117 C146.289307,75.6176767 146.24292,75.7531734 146.150146,75.8435059 C146.057373,75.9338383 145.918214,75.9790039 145.732666,75.9790039 C145.600829,75.9790039 145.487305,75.9411625 145.39209,75.8654785 C145.296875,75.7897945 145.180909,75.6323254 145.044189,75.3930664 C144.809813,74.9975566 144.525392,74.6984873 144.190918,74.4958496 C143.856444,74.2932119 143.471926,74.1918945 143.037354,74.1918945 C142.275631,74.1918945 141.656741,74.4165017 141.180664,74.8657227 C140.704587,75.3149437 140.466553,75.8959925 140.466553,76.6088867 C140.466553,77.3364294 140.694822,77.9309059 141.151367,78.392334 C141.607912,78.8537621 142.195065,79.0844727 142.912842,79.0844727 C143.239992,79.0844727 143.551268,79.0393071 143.84668,78.9489746 C144.142091,78.8586421 144.42163,78.7231454 144.685303,78.5424805 C144.778077,78.4838864 144.902587,78.3935553 145.058838,78.2714844 C145.376222,78.012694 145.625243,77.8833008 145.805908,77.8833008 C145.957276,77.8833008 146.080566,77.9309077 146.175781,78.026123 C146.270997,78.1213384 146.318604,78.2446281 146.318604,78.3959961 C146.318604,78.7817402 145.953617,79.1760234 145.223633,79.5788574 C144.493649,79.9816915 143.71851,80.1831055 142.898193,80.1831055 C141.838618,80.1831055 140.956058,79.8437534 140.250488,79.1650391 C139.544918,78.4863247 139.192139,77.6391652 139.192139,76.6235352 C139.192139,75.6079051 139.543698,74.7595249 140.246826,74.0783691 C140.949955,73.3972134 141.828852,73.0566406 142.883545,73.0566406 C143.254641,73.0566406 143.626951,73.106689 144.000488,73.2067871 C144.374025,73.3068853 144.77075,73.461913 145.190674,73.671875 Z M150.163818,77.2973633 C150.163818,77.9126007 150.293212,78.361815 150.552002,78.6450195 C150.810792,78.9282241 151.220944,79.0698242 151.782471,79.0698242 C152.3147,79.0698242 152.770018,78.9013689 153.148438,78.5644531 C153.526857,78.2275374 153.716064,77.8051783 153.716064,77.2973633 L153.716064,74.2724609 L152.712646,74.2724609 C152.522216,74.2724609 152.384278,74.2321781 152.298828,74.1516113 C152.213378,74.0710445 152.170654,73.9453134 152.170654,73.7744141 C152.170654,73.5888663 152.217041,73.4521489 152.309814,73.3642578 C152.402588,73.2763667 152.551513,73.2324219 152.756592,73.2324219 L154.31665,73.2324219 C154.502198,73.2324219 154.632812,73.2727047 154.708496,73.3532715 C154.78418,73.4338383 154.822021,73.6303695 154.822021,73.9428711 L154.822021,78.9672852 L155.158936,78.9672852 C155.398195,78.9672852 155.570312,79.0063473 155.675293,79.0844727 C155.780274,79.162598 155.832764,79.2919913 155.832764,79.4726562 C155.832764,79.6484384 155.782715,79.780273 155.682617,79.8681641 C155.582519,79.9560551 155.437257,80 155.246826,80 L154.133545,80 C154.001708,80 153.89917,79.9731448 153.825928,79.9194336 C153.752685,79.8657224 153.716064,79.7924809 153.716064,79.699707 L153.716064,79.2016602 C153.247312,79.5629901 152.845705,79.8107903 152.51123,79.9450684 C152.176756,80.0793464 151.823976,80.1464844 151.452881,80.1464844 C150.647213,80.1464844 150.042971,79.9328635 149.640137,79.5056152 C149.237303,79.078367 149.035889,78.4326215 149.035889,77.5683594 L149.035889,74.2724609 L148.88208,74.2724609 C148.550047,74.2724609 148.322999,74.2333988 148.200928,74.1552734 C148.078857,74.077148 148.017822,73.9404307 148.017822,73.7451172 C148.017822,73.5742179 148.065429,73.4460453 148.160645,73.3605957 C148.25586,73.2751461 148.403563,73.2324219 148.60376,73.2324219 L149.709717,73.2324219 C149.880616,73.2324219 149.999023,73.2666012 150.064941,73.3349609 C150.13086,73.4033207 150.163818,73.5546863 150.163818,73.7890625 L150.163818,77.2973633 Z M160.498291,71.4672852 L159.253174,71.4672852 C158.779539,71.4672852 158.482911,71.4294437 158.363281,71.3537598 C158.243652,71.2780758 158.183838,71.1401377 158.183838,70.9399414 C158.183838,70.7641593 158.233886,70.6323247 158.333984,70.5444336 C158.434083,70.4565425 158.579345,70.4125977 158.769775,70.4125977 L161.186768,70.4125977 C161.318604,70.4125977 161.421142,70.4394529 161.494385,70.4931641 C161.567627,70.5468753 161.604248,70.6201167 161.604248,70.7128906 L161.604248,78.9672852 L163.904053,78.9672852 C164.089601,78.9672852 164.225097,79.007568 164.310547,79.0881348 C164.395997,79.1687016 164.438721,79.2968741 164.438721,79.4726562 C164.438721,79.6728526 164.397217,79.8107906 164.314209,79.8864746 C164.231201,79.9621586 164.074952,80 163.845459,80 L158.440186,80 C158.249755,80 158.104493,79.9560551 158.004395,79.8681641 C157.904296,79.780273 157.854248,79.6484384 157.854248,79.4726562 C157.854248,79.301757 157.905517,79.1748051 158.008057,79.0917969 C158.110596,79.0087886 158.264403,78.9672852 158.469482,78.9672852 L160.498291,78.9672852 L160.498291,71.4672852 Z M171.616455,76.7626953 C171.347899,76.6748042 171.087892,76.6101076 170.836426,76.5686035 C170.58496,76.5270994 170.334718,76.5063477 170.085693,76.5063477 C169.333736,76.5063477 168.740481,76.6332995 168.305908,76.887207 C167.871336,77.1411146 167.654053,77.482908 167.654053,77.9125977 C167.654053,78.2446306 167.789549,78.5180653 168.060547,78.7329102 C168.331544,78.947755 168.677,79.0551758 169.096924,79.0551758 C169.717044,79.0551758 170.29199,78.8928239 170.821777,78.5681152 C171.351565,78.2434066 171.616455,77.9052752 171.616455,77.5537109 L171.616455,76.7626953 Z M171.675049,79.0698242 C171.274656,79.4311542 170.83887,79.7070303 170.367676,79.8974609 C169.896482,80.0878916 169.411868,80.1831055 168.913818,80.1831055 C168.186276,80.1831055 167.599123,79.9804708 167.152344,79.5751953 C166.705564,79.1699198 166.482178,78.6425814 166.482178,77.9931641 C166.482178,77.2216758 166.778806,76.6235373 167.37207,76.1987305 C167.965335,75.7739237 168.799067,75.5615234 169.873291,75.5615234 C170.156496,75.5615234 170.442137,75.5798338 170.730225,75.6164551 C171.018312,75.6530764 171.313719,75.7104488 171.616455,75.7885742 L171.616455,75.7373047 C171.616455,75.1757784 171.482179,74.7607435 171.213623,74.4921875 C170.945067,74.2236315 170.527591,74.0893555 169.961182,74.0893555 C169.58032,74.0893555 169.15552,74.1918935 168.686768,74.3969727 C168.218015,74.6020518 167.90796,74.7045898 167.756592,74.7045898 C167.61499,74.7045898 167.497803,74.6472174 167.405029,74.5324707 C167.312255,74.417724 167.265869,74.2700204 167.265869,74.0893555 C167.265869,73.8012681 167.535642,73.5571299 168.075195,73.3569336 C168.614749,73.1567373 169.304439,73.0566406 170.144287,73.0566406 C171.003666,73.0566406 171.653074,73.2751443 172.092529,73.7121582 C172.531985,74.1491721 172.751709,74.7949176 172.751709,75.6494141 L172.751709,78.9672852 L173.110596,78.9672852 C173.457277,78.9672852 173.689208,79.0039059 173.806396,79.0771484 C173.923585,79.150391 173.982178,79.2822256 173.982178,79.4726562 C173.982178,79.6484384 173.93335,79.780273 173.835693,79.8681641 C173.738037,79.9560551 173.591554,80 173.39624,80 L172.246338,80 C172.109618,80 171.997315,79.9584965 171.909424,79.8754883 C171.821533,79.7924801 171.76294,79.6728523 171.733643,79.5166016 L171.675049,79.0698242 Z M180.991455,73.6425781 C181.230714,73.6425781 181.405273,73.6840816 181.515137,73.7670898 C181.625001,73.8500981 181.679932,73.9819327 181.679932,74.1625977 C181.679932,74.3334969 181.628663,74.4616695 181.526123,74.5471191 C181.423583,74.6325688 181.269776,74.675293 181.064697,74.675293 L178.098389,74.675293 L178.098389,77.121582 C178.098389,77.9223673 178.202147,78.4497058 178.409668,78.7036133 C178.617189,78.9575208 178.97241,79.0844727 179.475342,79.0844727 C179.91968,79.0844727 180.451901,78.9550794 181.072021,78.6962891 C181.692142,78.4374987 182.075439,78.3081055 182.221924,78.3081055 C182.358643,78.3081055 182.474609,78.3569331 182.569824,78.4545898 C182.66504,78.5522466 182.712646,78.6718743 182.712646,78.8134766 C182.712646,78.9746102 182.652833,79.1149896 182.533203,79.2346191 C182.413574,79.3542486 182.209718,79.4702143 181.921631,79.5825195 C181.443113,79.7729502 181.012209,79.9121089 180.628906,80 C180.245604,80.0878911 179.8855,80.1318359 179.548584,80.1318359 C178.977292,80.1318359 178.497561,80.0402841 178.109375,79.8571777 C177.721189,79.6740714 177.431886,79.4018573 177.241455,79.0405273 C177.143798,78.8696281 177.074219,78.6669934 177.032715,78.4326172 C176.991211,78.198241 176.970459,77.8369165 176.970459,77.3486328 L176.970459,74.675293 L175.725342,74.675293 C175.520263,74.675293 175.371338,74.6350102 175.278564,74.5544434 C175.185791,74.4738766 175.139404,74.3432626 175.139404,74.1625977 C175.139404,73.9624013 175.20288,73.825684 175.329834,73.7524414 C175.456788,73.6791989 175.727781,73.6425781 176.142822,73.6425781 L176.970459,73.6425781 L176.970459,71.7529297 C176.970459,71.5429677 177.015625,71.38794 177.105957,71.2878418 C177.19629,71.1877436 177.336669,71.1376953 177.5271,71.1376953 C177.741944,71.1376953 177.890869,71.1987299 177.973877,71.3208008 C178.056885,71.4428717 178.098389,71.7211892 178.098389,72.1557617 L178.098389,73.6425781 L180.991455,73.6425781 Z M185.517822,76.9384766 C185.556885,77.6416051 185.79492,78.1848125 186.231934,78.5681152 C186.668947,78.9514179 187.265865,79.1430664 188.022705,79.1430664 C188.593997,79.1430664 189.216549,78.99048 189.890381,78.6853027 C190.564212,78.3801254 190.971923,78.2275391 191.113525,78.2275391 C191.26001,78.2275391 191.38208,78.2739253 191.479736,78.3666992 C191.577393,78.4594731 191.626221,78.5742181 191.626221,78.7109375 C191.626221,78.8525398 191.574952,78.981933 191.472412,79.0991211 C191.369873,79.2163092 191.2063,79.3310541 190.981689,79.4433594 C190.493406,79.6826184 189.98926,79.865722 189.469238,79.9926758 C188.949216,80.1196295 188.432864,80.1831055 187.920166,80.1831055 C186.806879,80.1831055 185.915775,79.8620638 185.246826,79.2199707 C184.577878,78.5778776 184.243408,77.7270561 184.243408,76.6674805 C184.243408,75.5883735 184.597409,74.7143588 185.30542,74.0454102 C186.013431,73.3764615 186.936274,73.0419922 188.073975,73.0419922 C189.104253,73.0419922 189.958737,73.3544891 190.637451,73.9794922 C191.316166,74.6044953 191.655518,75.3613237 191.655518,76.25 C191.655518,76.5234389 191.598145,76.7065425 191.483398,76.7993164 C191.368652,76.8920903 191.057376,76.9384766 190.549561,76.9384766 L185.517822,76.9384766 Z M185.554443,75.9790039 L190.32251,75.9790039 C190.249267,75.3979463 190.00635,74.9304217 189.59375,74.576416 C189.18115,74.2224103 188.674564,74.0454102 188.073975,74.0454102 C187.424557,74.0454102 186.877688,74.2163069 186.43335,74.5581055 C185.989011,74.8999041 185.696046,75.3735321 185.554443,75.9790039 Z M195.486084,76.25 L198.481689,76.25 L196.906982,72.3681641 L195.486084,76.25 Z M195.859619,72.3681641 L194.790283,72.3681641 C194.49243,72.3681641 194.283692,72.3278813 194.164062,72.2473145 C194.044433,72.1667476 193.984619,72.031251 193.984619,71.8408203 C193.984619,71.640624 194.037109,71.5026859 194.14209,71.427002 C194.247071,71.351318 194.533933,71.3134766 195.002686,71.3134766 L197.090088,71.3134766 C197.358644,71.3134766 197.540527,71.3488766 197.635742,71.4196777 C197.730958,71.4904789 197.817627,71.6210928 197.895752,71.8115234 L200.759521,78.9672852 L200.884033,78.9672852 C201.147706,78.9672852 201.328369,79.0039059 201.426025,79.0771484 C201.523682,79.150391 201.57251,79.2822256 201.57251,79.4726562 C201.57251,79.6728526 201.526124,79.8107906 201.43335,79.8864746 C201.340576,79.9621586 201.167238,80 200.91333,80 L198.921143,80 C198.550047,80 198.312012,79.9621586 198.207031,79.8864746 C198.10205,79.8107906 198.049561,79.6728526 198.049561,79.4726562 C198.049561,79.2871084 198.106933,79.1564945 198.22168,79.0808105 C198.336426,79.0051266 198.552489,78.9672852 198.869873,78.9672852 L199.551025,78.9672852 L198.840576,77.2241211 L195.119873,77.2241211 L194.48999,78.9672852 L195.200439,78.9672852 C195.522707,78.9672852 195.742431,79.0051266 195.859619,79.0808105 C195.976807,79.1564945 196.0354,79.2871084 196.0354,79.4726562 C196.0354,79.6728526 195.982911,79.8107906 195.87793,79.8864746 C195.772949,79.9621586 195.542238,80 195.185791,80 L193.259521,80 C192.94702,80 192.739502,79.9621586 192.636963,79.8864746 C192.534423,79.8107906 192.483154,79.6728526 192.483154,79.4726562 C192.483154,79.2822256 192.534423,79.150391 192.636963,79.0771484 C192.739502,79.0039059 192.937254,78.9672852 193.230225,78.9672852 L193.369385,78.9672852 L195.859619,72.3681641 Z M205.278564,78.9672852 L207.710205,78.9672852 C207.900636,78.9672852 208.041015,79.007568 208.131348,79.0881348 C208.22168,79.1687016 208.266846,79.2968741 208.266846,79.4726562 C208.266846,79.6728526 208.224122,79.8107906 208.138672,79.8864746 C208.053222,79.9621586 207.895753,80 207.66626,80 L202.876221,80 C202.68579,80 202.541749,79.9560551 202.444092,79.8681641 C202.346435,79.780273 202.297607,79.6484384 202.297607,79.4726562 C202.297607,79.301757 202.347656,79.1748051 202.447754,79.0917969 C202.547852,79.0087886 202.70288,78.9672852 202.912842,78.9672852 L204.187256,78.9672852 L204.187256,74.2724609 L203.689209,74.2724609 C203.215574,74.2724609 202.920167,74.2346195 202.802979,74.1589355 C202.68579,74.0832516 202.627197,73.9453135 202.627197,73.7451172 C202.627197,73.5742179 202.674804,73.4460453 202.77002,73.3605957 C202.865235,73.2751461 203.010497,73.2324219 203.205811,73.2324219 L204.875732,73.2324219 C205.007569,73.2324219 205.107666,73.2580564 205.176025,73.3093262 C205.244385,73.360596 205.278564,73.4350581 205.278564,73.5327148 L205.278564,74.777832 C205.742434,74.1967744 206.225828,73.7646499 206.72876,73.4814453 C207.231692,73.1982408 207.773679,73.0566406 208.354736,73.0566406 C208.789309,73.0566406 209.140868,73.1445304 209.409424,73.3203125 C209.67798,73.4960946 209.812256,73.7231431 209.812256,74.0014648 C209.812256,74.1821298 209.745118,74.3420403 209.61084,74.4812012 C209.476562,74.620362 209.328858,74.6899414 209.167725,74.6899414 C209.055419,74.6899414 208.866212,74.6154793 208.600098,74.4665527 C208.333983,74.3176262 208.095948,74.2431641 207.885986,74.2431641 C207.505125,74.2431641 207.103518,74.3786608 206.681152,74.6496582 C206.258787,74.9206557 205.791262,75.3491182 205.278564,75.9350586 L205.278564,78.9672852 Z M212.522217,76.9384766 C212.561279,77.6416051 212.799314,78.1848125 213.236328,78.5681152 C213.673342,78.9514179 214.27026,79.1430664 215.0271,79.1430664 C215.598392,79.1430664 216.220944,78.99048 216.894775,78.6853027 C217.568607,78.3801254 217.976318,78.2275391 218.11792,78.2275391 C218.264405,78.2275391 218.386474,78.2739253 218.484131,78.3666992 C218.581788,78.4594731 218.630615,78.5742181 218.630615,78.7109375 C218.630615,78.8525398 218.579346,78.981933 218.476807,79.0991211 C218.374267,79.2163092 218.210694,79.3310541 217.986084,79.4433594 C217.4978,79.6826184 216.993655,79.865722 216.473633,79.9926758 C215.953611,80.1196295 215.437258,80.1831055 214.924561,80.1831055 C213.811274,80.1831055 212.920169,79.8620638 212.251221,79.2199707 C211.582272,78.5778776 211.247803,77.7270561 211.247803,76.6674805 C211.247803,75.5883735 211.601803,74.7143588 212.309814,74.0454102 C213.017826,73.3764615 213.940668,73.0419922 215.078369,73.0419922 C216.108648,73.0419922 216.963131,73.3544891 217.641846,73.9794922 C218.32056,74.6044953 218.659912,75.3613237 218.659912,76.25 C218.659912,76.5234389 218.60254,76.7065425 218.487793,76.7993164 C218.373046,76.8920903 218.06177,76.9384766 217.553955,76.9384766 L212.522217,76.9384766 Z M212.558838,75.9790039 L217.326904,75.9790039 C217.253662,75.3979463 217.010744,74.9304217 216.598145,74.576416 C216.185545,74.2224103 215.678958,74.0454102 215.078369,74.0454102 C214.428952,74.0454102 213.882082,74.2163069 213.437744,74.5581055 C212.993406,74.8999041 212.70044,75.3735321 212.558838,75.9790039 Z M225.625244,76.7626953 C225.356688,76.6748042 225.096681,76.6101076 224.845215,76.5686035 C224.593749,76.5270994 224.343507,76.5063477 224.094482,76.5063477 C223.342526,76.5063477 222.74927,76.6332995 222.314697,76.887207 C221.880125,77.1411146 221.662842,77.482908 221.662842,77.9125977 C221.662842,78.2446306 221.798338,78.5180653 222.069336,78.7329102 C222.340333,78.947755 222.685789,79.0551758 223.105713,79.0551758 C223.725833,79.0551758 224.300779,78.8928239 224.830566,78.5681152 C225.360354,78.2434066 225.625244,77.9052752 225.625244,77.5537109 L225.625244,76.7626953 Z M225.683838,79.0698242 C225.283445,79.4311542 224.847659,79.7070303 224.376465,79.8974609 C223.905271,80.0878916 223.420657,80.1831055 222.922607,80.1831055 C222.195065,80.1831055 221.607912,79.9804708 221.161133,79.5751953 C220.714353,79.1699198 220.490967,78.6425814 220.490967,77.9931641 C220.490967,77.2216758 220.787595,76.6235373 221.380859,76.1987305 C221.974124,75.7739237 222.807856,75.5615234 223.88208,75.5615234 C224.165285,75.5615234 224.450926,75.5798338 224.739014,75.6164551 C225.027101,75.6530764 225.322508,75.7104488 225.625244,75.7885742 L225.625244,75.7373047 C225.625244,75.1757784 225.490968,74.7607435 225.222412,74.4921875 C224.953856,74.2236315 224.53638,74.0893555 223.969971,74.0893555 C223.589109,74.0893555 223.164309,74.1918935 222.695557,74.3969727 C222.226804,74.6020518 221.916749,74.7045898 221.765381,74.7045898 C221.623779,74.7045898 221.506592,74.6472174 221.413818,74.5324707 C221.321044,74.417724 221.274658,74.2700204 221.274658,74.0893555 C221.274658,73.8012681 221.544431,73.5571299 222.083984,73.3569336 C222.623538,73.1567373 223.313228,73.0566406 224.153076,73.0566406 C225.012455,73.0566406 225.661863,73.2751443 226.101318,73.7121582 C226.540774,74.1491721 226.760498,74.7949176 226.760498,75.6494141 L226.760498,78.9672852 L227.119385,78.9672852 C227.466066,78.9672852 227.697997,79.0039059 227.815186,79.0771484 C227.932374,79.150391 227.990967,79.2822256 227.990967,79.4726562 C227.990967,79.6484384 227.942139,79.780273 227.844482,79.8681641 C227.746826,79.9560551 227.600343,80 227.405029,80 L226.255127,80 C226.118408,80 226.006104,79.9584965 225.918213,79.8754883 C225.830322,79.7924801 225.771729,79.6728523 225.742432,79.5166016 L225.683838,79.0698242 Z" id="calculateArea(10,-6)" fill="#EF95EF"></path>
        <path d="M198.508301,34 L201.40332,26.1259766 L202.987793,26.1259766 L205.839844,34 L204.34668,34 L203.567871,31.7763672 L200.8125,31.7763672 L200.02832,34 L198.508301,34 Z M201.177734,30.6914062 L203.197266,30.6914062 C202.552731,28.6253152 202.221517,27.5582686 202.203613,27.4902344 L201.177734,30.6914062 Z M206.586426,34 L206.586426,26.1098633 L209.50293,26.1098633 C209.900393,26.1098633 210.245034,26.1277667 210.536865,26.1635742 C210.828696,26.1993817 211.1062,26.2647293 211.369385,26.3596191 C211.63257,26.4545089 211.845621,26.5825187 212.008545,26.7436523 C212.171469,26.904786 212.300374,27.1151517 212.395264,27.3747559 C212.490153,27.63436 212.537598,27.9414045 212.537598,28.2958984 C212.537598,29.3414766 212.063156,30.0289697 211.114258,30.3583984 C211.307618,30.576824 211.547525,30.9814424 211.833984,31.5722656 L213.004883,34 L211.415039,34 L210.496582,31.9428711 C210.14925,31.2052372 209.934408,30.7683926 209.852051,30.6323242 C209.791178,30.6287435 209.588869,30.6269531 209.245117,30.6269531 L208.025879,30.6162109 L208.025879,34 L206.586426,34 Z M209.631836,29.5742188 C210.190432,29.5742188 210.59147,29.4748545 210.834961,29.276123 C211.078452,29.0773916 211.200195,28.7578147 211.200195,28.3173828 C211.200195,27.9306621 211.076661,27.645997 210.82959,27.4633789 C210.582518,27.2807608 210.204755,27.1894531 209.696289,27.1894531 L208.025879,27.1894531 L208.025879,29.5688477 C208.07959,29.5688477 208.346352,29.5697428 208.826172,29.5715332 C209.305992,29.5733236 209.574544,29.5742188 209.631836,29.5742188 Z M217.602539,34.112793 C216.402989,34.112793 215.465742,33.7511429 214.790771,33.027832 C214.115801,32.3045211 213.77832,31.3144594 213.77832,30.0576172 C213.77832,29.2591106 213.935871,28.5563995 214.250977,27.9494629 C214.566082,27.3425263 215.029782,26.8689796 215.64209,26.5288086 C216.254398,26.1886376 216.977698,26.0185547 217.812012,26.0185547 C218.768071,26.0185547 219.58805,26.2244446 220.271973,26.6362305 L219.799316,27.7211914 C219.14762,27.3702782 218.494144,27.1948242 217.838867,27.1948242 C217.043941,27.1948242 216.41911,27.4526341 215.964355,27.9682617 C215.509601,28.4838893 215.282227,29.1857052 215.282227,30.0737305 C215.282227,30.9545942 215.484536,31.6510391 215.88916,32.1630859 C216.293785,32.6751328 216.886389,32.9311523 217.666992,32.9311523 C218.168297,32.9311523 218.623045,32.8523771 219.03125,32.6948242 L219.03125,30.8686523 L217.382324,30.8686523 L217.393066,29.7246094 L220.400879,29.7246094 L220.400879,33.5219727 C219.913897,33.7224945 219.452883,33.8710933 219.017822,33.9677734 C218.582761,34.0644536 218.111005,34.112793 217.602539,34.112793 Z M225.036133,34.112793 C224.004878,34.112793 223.222496,33.8558782 222.688965,33.342041 C222.155434,32.8282038 221.888672,32.1040086 221.888672,31.1694336 L221.888672,26.1313477 L223.349609,26.1313477 L223.349609,31.0458984 C223.349609,31.7011752 223.48299,32.1791977 223.749756,32.4799805 C224.016522,32.7807632 224.454261,32.9311523 225.062988,32.9311523 C225.660973,32.9311523 226.094237,32.779868 226.362793,32.4772949 C226.631349,32.1747218 226.765625,31.6958041 226.765625,31.0405273 L226.765625,26.1313477 L228.221191,26.1313477 L228.221191,31.1801758 C228.221191,32.1075893 227.949059,32.8282038 227.404785,33.342041 C226.860512,33.8558782 226.070969,34.112793 225.036133,34.112793 Z M229.848633,34 L229.848633,26.1313477 L231.567383,26.1313477 L233.946777,31.8139648 L236.342285,26.1313477 L238.039551,26.1313477 L238.039551,34 L236.696777,34 L236.696777,30.1113281 L236.739746,27.8823242 L236.541016,28.4731445 L234.526855,33.4628906 L233.280762,33.4628906 L231.30957,28.4462891 L231.11084,27.8554688 L231.15918,30.1328125 L231.15918,34 L229.848633,34 Z M239.736816,34 L239.736816,26.1313477 L244.506348,26.1313477 L244.447266,27.2861328 L241.192383,27.2861328 L241.192383,29.3164062 L244.286133,29.3164062 L244.286133,30.4711914 L241.192383,30.4711914 L241.192383,32.8398438 L244.56543,32.8398438 L244.51709,34 L239.736816,34 Z M245.924316,34 L245.924316,26.1313477 L247.471191,26.1313477 C247.75049,26.5681988 248.31803,27.4490494 249.173828,28.7739258 C250.029627,30.0988022 250.550618,30.9044582 250.736816,31.190918 C250.790528,31.2732752 250.88273,31.412027 251.013428,31.6071777 C251.144125,31.8023284 251.236328,31.9410803 251.290039,32.0234375 C251.264974,30.7952413 251.252441,30.1578778 251.252441,30.1113281 L251.252441,26.1313477 L252.579102,26.1313477 L252.579102,34 L251.010742,34 L247.460449,28.4677734 L247.202637,28.043457 C247.231283,28.9887743 247.245605,29.6529929 247.245605,30.0361328 L247.245605,34 L245.924316,34 Z M255.791016,34 L255.791016,27.296875 L253.497559,27.296875 L253.497559,26.1313477 L259.534668,26.1313477 L259.534668,27.296875 L257.251953,27.296875 L257.251953,34 L255.791016,34 Z M262.666016,34.1074219 C261.717118,34.1074219 260.866703,33.8889996 260.114746,33.4521484 L260.469238,32.2973633 C260.805829,32.4835621 261.171954,32.6339512 261.567627,32.7485352 C261.9633,32.8631191 262.349119,32.9204102 262.725098,32.9204102 C263.187014,32.9204102 263.536132,32.8210459 263.772461,32.6223145 C264.00879,32.423583 264.126953,32.1380227 264.126953,31.765625 C264.126953,31.2714819 263.797529,30.9295257 263.138672,30.7397461 C263.092122,30.7254231 262.961427,30.6869307 262.746582,30.6242676 C262.531737,30.5616045 262.330323,30.5007327 262.142334,30.4416504 C261.954345,30.3825681 261.819174,30.3369142 261.736816,30.3046875 C260.680496,29.9322898 260.152344,29.2376353 260.152344,28.2207031 C260.152344,27.5081345 260.405678,26.958498 260.912354,26.5717773 C261.419029,26.1850567 262.091304,25.9916992 262.929199,25.9916992 C263.878097,25.9916992 264.696286,26.186847 265.383789,26.5771484 L264.943359,27.640625 C264.241533,27.3255193 263.589847,27.1679688 262.988281,27.1679688 C262.555011,27.1679688 262.228273,27.2440585 262.008057,27.3962402 C261.787841,27.548422 261.670573,27.801756 261.65625,28.15625 C261.65625,28.5931011 261.872882,28.8777663 262.306152,29.0102539 C262.39209,29.0424806 262.603351,29.1123042 262.939941,29.2197266 C263.276532,29.327149 263.494954,29.3969725 263.595215,29.4291992 C264.314945,29.6655285 264.82967,29.9591454 265.139404,30.3100586 C265.449139,30.6609718 265.604004,31.1497365 265.604004,31.7763672 C265.604004,32.5247433 265.339033,33.1003398 264.809082,33.5031738 C264.279131,33.9060079 263.564783,34.1074219 262.666016,34.1074219 Z M268.885742,34 L271.780762,26.1259766 L273.365234,26.1259766 L276.217285,34 L274.724121,34 L273.945312,31.7763672 L271.189941,31.7763672 L270.405762,34 L268.885742,34 Z M271.555176,30.6914062 L273.574707,30.6914062 C272.930173,28.6253152 272.598958,27.5582686 272.581055,27.4902344 L271.555176,30.6914062 Z M279.257324,34.1074219 C278.308426,34.1074219 277.458012,33.8889996 276.706055,33.4521484 L277.060547,32.2973633 C277.397137,32.4835621 277.763263,32.6339512 278.158936,32.7485352 C278.554608,32.8631191 278.940428,32.9204102 279.316406,32.9204102 C279.778323,32.9204102 280.12744,32.8210459 280.36377,32.6223145 C280.600099,32.423583 280.718262,32.1380227 280.718262,31.765625 C280.718262,31.2714819 280.388838,30.9295257 279.72998,30.7397461 C279.683431,30.7254231 279.552735,30.6869307 279.337891,30.6242676 C279.123046,30.5616045 278.921632,30.5007327 278.733643,30.4416504 C278.545653,30.3825681 278.410482,30.3369142 278.328125,30.3046875 C277.271805,29.9322898 276.743652,29.2376353 276.743652,28.2207031 C276.743652,27.5081345 276.996986,26.958498 277.503662,26.5717773 C278.010338,26.1850567 278.682613,25.9916992 279.520508,25.9916992 C280.469406,25.9916992 281.287594,26.186847 281.975098,26.5771484 L281.534668,27.640625 C280.832842,27.3255193 280.181155,27.1679688 279.57959,27.1679688 C279.146319,27.1679688 278.819581,27.2440585 278.599365,27.3962402 C278.379149,27.548422 278.261882,27.801756 278.247559,28.15625 C278.247559,28.5931011 278.464191,28.8777663 278.897461,29.0102539 C278.983399,29.0424806 279.19466,29.1123042 279.53125,29.2197266 C279.86784,29.327149 280.086263,29.3969725 280.186523,29.4291992 C280.906254,29.6655285 281.420978,29.9591454 281.730713,30.3100586 C282.040448,30.6609718 282.195312,31.1497365 282.195312,31.7763672 C282.195312,32.5247433 281.930341,33.1003398 281.400391,33.5031738 C280.87044,33.9060079 280.156092,34.1074219 279.257324,34.1074219 Z M288.32373,34 L285.460938,26.1313477 L286.959473,26.1313477 L288.624512,30.9921875 C288.688965,31.1604826 288.837564,31.6528279 289.070312,32.4692383 C289.084635,32.4119463 289.150878,32.1765157 289.269043,31.7629395 C289.387208,31.3493632 289.464193,31.0960291 289.5,31.0029297 C289.542969,30.8811843 289.815102,30.0728428 290.316406,28.5778809 C290.817711,27.082919 291.091634,26.267416 291.138184,26.1313477 L292.620605,26.1313477 L289.79541,34 L288.32373,34 Z M291.997559,34 L294.892578,26.1259766 L296.477051,26.1259766 L299.329102,34 L297.835938,34 L297.057129,31.7763672 L294.301758,31.7763672 L293.517578,34 L291.997559,34 Z M294.666992,30.6914062 L296.686523,30.6914062 C296.041989,28.6253152 295.710775,27.5582686 295.692871,27.4902344 L294.666992,30.6914062 Z M300.113281,34 L300.113281,26.1313477 L301.568848,26.1313477 L301.568848,32.8398438 L304.861328,32.8398438 L304.818359,34 L300.113281,34 Z M308.937988,34.112793 C307.906733,34.112793 307.124352,33.8558782 306.59082,33.342041 C306.057289,32.8282038 305.790527,32.1040086 305.790527,31.1694336 L305.790527,26.1313477 L307.251465,26.1313477 L307.251465,31.0458984 C307.251465,31.7011752 307.384846,32.1791977 307.651611,32.4799805 C307.918377,32.7807632 308.356117,32.9311523 308.964844,32.9311523 C309.562829,32.9311523 309.996092,32.779868 310.264648,32.4772949 C310.533204,32.1747218 310.66748,31.6958041 310.66748,31.0405273 L310.66748,26.1313477 L312.123047,26.1313477 L312.123047,31.1801758 C312.123047,32.1075893 311.850914,32.8282038 311.306641,33.342041 C310.762367,33.8558782 309.972824,34.112793 308.937988,34.112793 Z M313.750488,34 L313.750488,26.1313477 L318.52002,26.1313477 L318.460938,27.2861328 L315.206055,27.2861328 L315.206055,29.3164062 L318.299805,29.3164062 L318.299805,30.4711914 L315.206055,30.4711914 L315.206055,32.8398438 L318.579102,32.8398438 L318.530762,34 L313.750488,34 Z M322.145508,34.1074219 C321.19661,34.1074219 320.346195,33.8889996 319.594238,33.4521484 L319.94873,32.2973633 C320.285321,32.4835621 320.651447,32.6339512 321.047119,32.7485352 C321.442792,32.8631191 321.828611,32.9204102 322.20459,32.9204102 C322.666506,32.9204102 323.015624,32.8210459 323.251953,32.6223145 C323.488282,32.423583 323.606445,32.1380227 323.606445,31.765625 C323.606445,31.2714819 323.277022,30.9295257 322.618164,30.7397461 C322.571614,30.7254231 322.440919,30.6869307 322.226074,30.6242676 C322.011229,30.5616045 321.809815,30.5007327 321.621826,30.4416504 C321.433837,30.3825681 321.298666,30.3369142 321.216309,30.3046875 C320.159988,29.9322898 319.631836,29.2376353 319.631836,28.2207031 C319.631836,27.5081345 319.88517,26.958498 320.391846,26.5717773 C320.898521,26.1850567 321.570797,25.9916992 322.408691,25.9916992 C323.357589,25.9916992 324.175778,26.186847 324.863281,26.5771484 L324.422852,27.640625 C323.721025,27.3255193 323.069339,27.1679688 322.467773,27.1679688 C322.034503,27.1679688 321.707765,27.2440585 321.487549,27.3962402 C321.267333,27.548422 321.150065,27.801756 321.135742,28.15625 C321.135742,28.5931011 321.352374,28.8777663 321.785645,29.0102539 C321.871582,29.0424806 322.082843,29.1123042 322.419434,29.2197266 C322.756024,29.327149 322.974446,29.3969725 323.074707,29.4291992 C323.794437,29.6655285 324.309162,29.9591454 324.618896,30.3100586 C324.928631,30.6609718 325.083496,31.1497365 325.083496,31.7763672 C325.083496,32.5247433 324.818525,33.1003398 324.288574,33.5031738 C323.758624,33.9060079 323.044275,34.1074219 322.145508,34.1074219 Z" id="ARGUMENTS-AS-VALUES" fill="#4A4A4A"></path>
        <g id="Group" transform="translate(261.500000, 51.500000) rotate(-360.000000) translate(-261.500000, -51.500000) translate(239.000000, 40.000000)" stroke="#4A4A4A" stroke-linecap="square">
            <path d="M44,12 L44,22.5" id="Line-4-Copy" transform="translate(44.000000, 17.250000) scale(-1, -1) translate(-44.000000, -17.250000) "></path>
            <path d="M1,12 L1,22.5" id="Line-4-Copy-2" transform="translate(1.000000, 17.250000) scale(-1, -1) translate(-1.000000, -17.250000) "></path>
            <path d="M1,11 L44,11" id="Line-5-Copy" transform="translate(22.500000, 11.000000) scale(-1, -1) translate(-22.500000, -11.000000) "></path>
            <path d="M23,0.5 L23,11" id="Line-6-Copy" transform="translate(23.000000, 5.750000) scale(-1, -1) translate(-23.000000, -5.750000) "></path>
        </g>
        <g id="Group-2" transform="translate(170.000000, 99.000000) rotate(-180.000000) translate(-170.000000, -99.000000) translate(112.000000, 87.000000)" stroke="#4A4A4A" stroke-linecap="square">
            <path d="M115,13 L115,24" id="Line-4-Copy" transform="translate(115.000000, 18.500000) scale(-1, -1) translate(-115.000000, -18.500000) "></path>
            <path d="M1,13 C1,13 1,16.6666667 1,24" id="Line-4-Copy-2" transform="translate(1.000000, 18.500000) scale(-1, -1) translate(-1.000000, -18.500000) "></path>
            <path d="M2,12 L115,12" id="Line-5-Copy" transform="translate(58.500000, 12.000000) scale(-1, -1) translate(-58.500000, -12.000000) "></path>
            <path d="M59,2.4158453e-13 L59,12" id="Line-6-Copy" transform="translate(59.000000, 6.000000) scale(-1, -1) translate(-59.000000, -6.000000) "></path>
        </g>
        <path d="M141.309814,125 L141.309814,117.131348 L142.765381,117.131348 L142.765381,125 L141.309814,125 Z M145.966553,123.834473 L147.008545,123.834473 C147.907312,123.834473 148.591225,123.599042 149.060303,123.128174 C149.529381,122.657306 149.763916,121.970708 149.763916,121.068359 C149.763916,120.101558 149.522219,119.398847 149.038818,118.960205 C148.555418,118.521564 147.826746,118.302246 146.852783,118.302246 L145.966553,118.302246 L145.966553,123.834473 Z M144.510986,125 L144.510986,117.131348 L146.78833,117.131348 C147.475834,117.131348 148.091713,117.210123 148.635986,117.367676 C149.18026,117.525229 149.648436,117.76245 150.040527,118.079346 C150.432619,118.396242 150.733397,118.804441 150.942871,119.303955 C151.152345,119.803469 151.25708,120.380856 151.25708,121.036133 C151.25708,122.307298 150.873946,123.285722 150.107666,123.971436 C149.341386,124.657149 148.279711,125 146.922607,125 L144.510986,125 Z M152.637451,125 L152.637451,117.131348 L157.406982,117.131348 L157.3479,118.286133 L154.093018,118.286133 L154.093018,120.316406 L157.186768,120.316406 L157.186768,121.471191 L154.093018,121.471191 L154.093018,123.839844 L157.466064,123.839844 L157.417725,125 L152.637451,125 Z M158.824951,125 L158.824951,117.131348 L160.371826,117.131348 C160.651124,117.568199 161.218664,118.449049 162.074463,119.773926 C162.930261,121.098802 163.451252,121.904458 163.637451,122.190918 C163.691162,122.273275 163.783365,122.412027 163.914062,122.607178 C164.04476,122.802328 164.136963,122.94108 164.190674,123.023438 C164.165609,121.795241 164.153076,121.157878 164.153076,121.111328 L164.153076,117.131348 L165.479736,117.131348 L165.479736,125 L163.911377,125 L160.361084,119.467773 L160.103271,119.043457 C160.131917,119.988774 160.14624,120.652993 160.14624,121.036133 L160.14624,125 L158.824951,125 Z M168.69165,125 L168.69165,118.296875 L166.398193,118.296875 L166.398193,117.131348 L172.435303,117.131348 L172.435303,118.296875 L170.152588,118.296875 L170.152588,125 L168.69165,125 Z M173.396729,125 L173.396729,117.131348 L174.852295,117.131348 L174.852295,125 L173.396729,125 Z M176.592529,125 L176.592529,117.131348 L181.249268,117.131348 L181.195557,118.286133 L178.037354,118.286133 L178.037354,120.520508 L181.039795,120.520508 L181.039795,121.664551 L178.037354,121.664551 L178.037354,125 L176.592529,125 Z M182.554443,125 L182.554443,117.131348 L184.01001,117.131348 L184.01001,125 L182.554443,125 Z M185.750244,125 L185.750244,117.131348 L190.519775,117.131348 L190.460693,118.286133 L187.205811,118.286133 L187.205811,120.316406 L190.299561,120.316406 L190.299561,121.471191 L187.205811,121.471191 L187.205811,123.839844 L190.578857,123.839844 L190.530518,125 L185.750244,125 Z M191.900146,125 L191.900146,117.109863 L194.81665,117.109863 C195.214113,117.109863 195.558755,117.127767 195.850586,117.163574 C196.142417,117.199382 196.419921,117.264729 196.683105,117.359619 C196.94629,117.454509 197.159342,117.582519 197.322266,117.743652 C197.48519,117.904786 197.614095,118.115152 197.708984,118.374756 C197.803874,118.63436 197.851318,118.941404 197.851318,119.295898 C197.851318,120.341477 197.376876,121.02897 196.427979,121.358398 C196.621339,121.576824 196.861245,121.981442 197.147705,122.572266 L198.318604,125 L196.72876,125 L195.810303,122.942871 C195.46297,122.205237 195.248129,121.768393 195.165771,121.632324 C195.104899,121.628743 194.90259,121.626953 194.558838,121.626953 L193.3396,121.616211 L193.3396,125 L191.900146,125 Z M194.945557,120.574219 C195.504153,120.574219 195.905191,120.474855 196.148682,120.276123 C196.392172,120.077392 196.513916,119.757815 196.513916,119.317383 C196.513916,118.930662 196.390382,118.645997 196.143311,118.463379 C195.896239,118.280761 195.518476,118.189453 195.01001,118.189453 L193.3396,118.189453 L193.3396,120.568848 C193.393311,120.568848 193.660072,120.569743 194.139893,120.571533 C194.619713,120.573324 194.888265,120.574219 194.945557,120.574219 Z" id="IDENTIFIER" fill="#4A4A4A"></path>
        <path d="M240.251709,72.1411133 L240.108887,72.1630859 C240.077148,72.1679688 240.049072,72.1704102 240.024658,72.1704102 C239.87329,72.1704102 239.75,72.127686 239.654785,72.0422363 C239.55957,71.9567867 239.511963,71.8432624 239.511963,71.7016602 C239.511963,71.5844721 239.553466,71.481934 239.636475,71.394043 C239.719483,71.3061519 239.839111,71.2402346 239.995361,71.1962891 L242.170654,70.6103516 C242.224366,70.5957031 242.276855,70.5847168 242.328125,70.5773926 C242.379395,70.5700683 242.431884,70.5664062 242.485596,70.5664062 C242.57837,70.5664062 242.651611,70.6091304 242.705322,70.6945801 C242.759033,70.7800297 242.785889,70.8959954 242.785889,71.0424805 L242.785889,78.9672852 L243.957764,78.9672852 C244.392336,78.9672852 244.668212,79.0026852 244.7854,79.0734863 C244.902588,79.1442875 244.961182,79.2773428 244.961182,79.4726562 C244.961182,79.6484384 244.912354,79.780273 244.814697,79.8681641 C244.717041,79.9560551 244.570558,80 244.375244,80 L239.995361,80 C239.800048,80 239.653565,79.9560551 239.555908,79.8681641 C239.458251,79.780273 239.409424,79.6484384 239.409424,79.4726562 C239.409424,79.2773428 239.468017,79.1442875 239.585205,79.0734863 C239.702393,79.0026852 239.978269,78.9672852 240.412842,78.9672852 L241.628662,78.9672852 L241.628662,71.8115234 L240.251709,72.1411133 Z" id="Path" fill="#72DC7A" fill-rule="nonzero"></path>
        <path d="M251.003662,80.2416992 C250.085689,80.2416992 249.356936,79.8083539 248.817383,78.9416504 C248.277829,78.0749468 248.008057,76.8872146 248.008057,75.378418 C248.008057,73.8745042 248.277829,72.6892133 248.817383,71.8225098 C249.356936,70.9558062 250.085689,70.5224609 251.003662,70.5224609 C251.921635,70.5224609 252.651609,70.9570269 253.193604,71.8261719 C253.735598,72.6953168 254.006592,73.879387 254.006592,75.378418 C254.006592,76.8774489 253.735598,78.0627398 253.193604,78.9343262 C252.651609,79.8059126 251.921635,80.2416992 251.003662,80.2416992 Z M251.003662,71.5698242 C250.442136,71.5698242 250.005129,71.9018521 249.692627,72.565918 C249.380125,73.2299838 249.223877,74.1674744 249.223877,75.378418 C249.223877,76.5942444 249.380125,77.5353971 249.692627,78.2019043 C250.005129,78.8684115 250.442136,79.2016602 251.003662,79.2016602 C251.570071,79.2016602 252.00952,78.8684115 252.322021,78.2019043 C252.634523,77.5353971 252.790771,76.5942444 252.790771,75.378418 C252.790771,74.1674744 252.634523,73.2299838 252.322021,72.565918 C252.00952,71.9018521 251.570071,71.5698242 251.003662,71.5698242 Z" id="Combined-Shape" fill="#72DC7A" fill-rule="nonzero"></path>
        <path d="M276.272217,75.2026367 C276.53589,74.8608381 276.828856,74.604493 277.151123,74.4335938 C277.47339,74.2626945 277.824949,74.1772461 278.205811,74.1772461 C278.977299,74.1772461 279.63281,74.4677705 280.172363,75.0488281 C280.711917,75.6298857 280.981689,76.3452106 280.981689,77.1948242 C280.981689,78.0835005 280.720462,78.8134737 280.197998,79.3847656 C279.675534,79.9560575 279.006596,80.2416992 278.191162,80.2416992 C277.229243,80.2416992 276.458987,79.859623 275.880371,79.095459 C275.301755,78.331295 275.012451,77.3120181 275.012451,76.0375977 C275.012451,74.3774331 275.439693,73.0432179 276.294189,72.0349121 C277.148686,71.0266063 278.276604,70.5224609 279.677979,70.5224609 C280.151614,70.5224609 280.464111,70.5566403 280.615479,70.625 C280.766846,70.6933597 280.842529,70.822753 280.842529,71.0131836 C280.842529,71.3256852 280.554446,71.4868164 279.978271,71.496582 C279.59741,71.5014649 279.292237,71.5258787 279.062744,71.5698242 C278.291256,71.7163093 277.665041,72.1032683 277.184082,72.7307129 C276.703123,73.3581574 276.399171,74.1821238 276.272217,75.2026367 Z M276.43335,77.1508789 C276.43335,77.7514678 276.592039,78.2409649 276.909424,78.6193848 C277.226808,78.9978046 277.634519,79.1870117 278.132568,79.1870117 C278.601321,79.1870117 278.985838,79.0087908 279.286133,78.6523438 C279.586427,78.2958967 279.736572,77.8295927 279.736572,77.253418 C279.736572,76.6577119 279.581545,76.1743183 279.271484,75.8032227 C278.961424,75.4321271 278.562258,75.246582 278.073975,75.246582 C277.600339,75.246582 277.208498,75.4248029 276.898438,75.78125 C276.588377,76.1376971 276.43335,76.5942355 276.43335,77.1508789 Z" id="Combined-Shape" fill="#72DC7A" fill-rule="nonzero"></path>
        <path d="M234.487549,71.3867188 C234.487549,71.4892583 234.405763,71.7102034 234.242188,72.0495605 C234.078612,72.3889177 233.955323,72.6586904 233.872314,72.8588867 C233.540282,73.6352578 233.304688,74.3456999 233.165527,74.9902344 C233.026366,75.6347688 232.956787,76.3037075 232.956787,76.9970703 C232.956787,77.6367219 233.01538,78.2556122 233.132568,78.8537598 C233.249756,79.4519073 233.427977,80.0488251 233.667236,80.6445312 C233.789307,80.9667985 233.956542,81.3464334 234.168945,81.7834473 C234.381349,82.2204612 234.487549,82.4902339 234.487549,82.5927734 C234.487549,82.7001958 234.464356,82.7844235 234.417969,82.845459 C234.371582,82.9064944 234.309327,82.9370117 234.231201,82.9370117 C234.079833,82.9370117 233.911378,82.8576668 233.72583,82.6989746 C233.540282,82.5402824 233.325441,82.285158 233.081299,81.9335938 C232.558835,81.1865197 232.168214,80.4028361 231.909424,79.5825195 C231.650633,78.7622029 231.52124,77.9003951 231.52124,76.9970703 C231.52124,76.1718709 231.62744,75.3845252 231.839844,74.6350098 C232.052247,73.8854943 232.37573,73.1591832 232.810303,72.4560547 C233.093507,71.9921852 233.354735,71.6430676 233.593994,71.4086914 C233.833253,71.1743152 234.045653,71.0571289 234.231201,71.0571289 C234.309327,71.0571289 234.371582,71.0876462 234.417969,71.1486816 C234.464356,71.2097171 234.487549,71.289062 234.487549,71.3867188 Z" id="Path" fill="#9B9B9B" fill-rule="nonzero"></path>
        <path d="M259.140869,77.956543 C259.179932,77.7905265 259.231201,77.6843264 259.294678,77.6379395 C259.358155,77.5915525 259.465575,77.5683594 259.616943,77.5683594 L261.220947,77.5683594 C261.29419,77.5683594 261.352783,77.5830077 261.396729,77.6123047 C261.440674,77.6416017 261.462646,77.6782224 261.462646,77.722168 C261.462646,77.7465822 261.457764,77.7783201 261.447998,77.8173828 C261.438232,77.8564455 261.423584,77.8930662 261.404053,77.9272461 L259.389893,82.1166992 C259.355713,82.1899418 259.309326,82.2485349 259.250732,82.2924805 C259.192138,82.336426 259.128662,82.3583984 259.060303,82.3583984 C259.045654,82.3583984 259.029785,82.3559571 259.012695,82.3510742 C258.995605,82.3461914 258.967529,82.3364259 258.928467,82.3217773 L258.415771,82.1313477 C258.337646,82.0971678 258.279053,82.0581057 258.23999,82.0141602 C258.200928,81.9702146 258.181396,81.9189456 258.181396,81.8603516 L258.181396,81.7468262 C258.181396,81.7248534 258.186279,81.7016603 258.196045,81.6772461 L259.140869,77.956543 Z" id="Path" fill="#9B9B9B" fill-rule="nonzero"></path>
        <path d="M285.515381,82.5927734 C285.515381,82.4951167 285.598388,82.2790544 285.764404,81.9445801 C285.930421,81.6101057 286.057373,81.3427744 286.145264,81.1425781 C286.472414,80.3613242 286.706786,79.64722 286.848389,79.0002441 C286.989991,78.3532682 287.060791,77.6855503 287.060791,76.9970703 C287.060791,76.3720672 287.000977,75.7580597 286.881348,75.1550293 C286.761718,74.5519989 286.579835,73.9477569 286.335693,73.3422852 C286.20874,73.0200179 286.040284,72.640383 285.830322,72.2033691 C285.62036,71.7663552 285.515381,71.4941412 285.515381,71.3867188 C285.515381,71.289062 285.539795,71.2097171 285.588623,71.1486816 C285.637451,71.0876462 285.700927,71.0571289 285.779053,71.0571289 C285.940186,71.0571289 286.112304,71.1364738 286.29541,71.295166 C286.478517,71.4538582 286.692137,71.7065412 286.936279,72.0532227 C287.458743,72.7954139 287.849364,73.5790974 288.108154,74.4042969 C288.366945,75.2294963 288.496338,76.0937455 288.496338,76.9970703 C288.496338,77.8222698 288.387696,78.6108361 288.17041,79.362793 C287.953124,80.1147499 287.627199,80.8422816 287.192627,81.5454102 C286.889891,82.0239282 286.625001,82.3754872 286.397949,82.6000977 C286.170897,82.8247082 285.964601,82.9370117 285.779053,82.9370117 C285.700927,82.9370117 285.637451,82.9052738 285.588623,82.8417969 C285.539795,82.77832 285.515381,82.695313 285.515381,82.5927734 Z" id="Path" fill="#9B9B9B" fill-rule="nonzero"></path>
        <path d="M295.095459,78.2128906 C295.139405,78.051757 295.190674,77.949219 295.249268,77.9052734 C295.307862,77.8613279 295.407958,77.8393555 295.549561,77.8393555 L297.065674,77.8393555 C297.129151,77.8393555 297.18164,77.8540038 297.223145,77.8833008 C297.264649,77.9125978 297.2854,77.9492185 297.2854,77.9931641 C297.2854,78.0078126 297.280518,78.0346678 297.270752,78.0737305 C297.260986,78.1127932 297.246338,78.1494139 297.226807,78.1835938 L295.337158,82.1166992 C295.298096,82.1948246 295.255371,82.2509764 295.208984,82.2851562 C295.162597,82.3193361 295.105225,82.3364258 295.036865,82.3364258 C294.997803,82.3364258 294.967285,82.3352051 294.945312,82.3327637 C294.92334,82.3303223 294.905029,82.3266602 294.890381,82.3217773 L294.406982,82.1459961 C294.33374,82.1166991 294.278809,82.0800783 294.242188,82.0361328 C294.205566,81.9921873 294.187256,81.9433596 294.187256,81.8896484 C294.187256,81.8701171 294.188477,81.8481447 294.190918,81.8237305 C294.193359,81.7993163 294.201904,81.7602542 294.216553,81.706543 L295.095459,78.2128906 Z" id="Path" fill="#9B9B9B" fill-rule="nonzero"></path>
        <path d="M294.531494,74.7485352 C294.531494,74.3676739 294.664549,74.055177 294.930664,73.8110352 C295.196779,73.5668933 295.542234,73.4448242 295.967041,73.4448242 C296.401614,73.4448242 296.753172,73.5656726 297.021729,73.807373 C297.290285,74.0490735 297.424561,74.362791 297.424561,74.7485352 C297.424561,75.1342793 297.290285,75.4479968 297.021729,75.6896973 C296.753172,75.9313977 296.401614,76.0522461 295.967041,76.0522461 C295.537351,76.0522461 295.190675,75.9326184 294.927002,75.6933594 C294.663329,75.4541004 294.531494,75.1391621 294.531494,74.7485352 Z" id="Path" fill="#9B9B9B" fill-rule="nonzero"></path>
    </g>
</svg>