<?xml version="1.0" encoding="UTF-8"?>
<svg width="1214px" height="592px" viewBox="0 0 1214 592" version="1.1" xmlns="http://www.w3.org/2000/svg" xmlns:xlink="http://www.w3.org/1999/xlink">
    <!-- Generator: Sketch 49.1 (51147) - http://www.bohemiancoding.com/sketch -->
    <title>Race day timeline</title>
    <desc>Created with Sketch.</desc>
    <defs></defs>
    <g id="Race-day-timeline" stroke="none" stroke-width="1" fill="none" fill-rule="evenodd">
        <polygon id="Page-1" fill="#204056" points="0 592 1214 592 1214 0 0 0"></polygon>
        <path d="M365.292969,116.408203 C362.408189,108.027302 360.815431,103.317388 360.514648,102.27832 L355.53125,116.408203 L365.292969,116.408203 Z M369.989258,129 L366.441406,119.381836 L354.341797,119.381836 L350.670898,129 L347.061523,129 L358.709961,98.6074219 L362.339844,98.6074219 L373.639648,129 L369.989258,129 Z M386.811133,126.518555 C389.067004,126.518555 390.745209,125.793953 391.845801,124.344727 C392.946392,122.895501 393.49668,120.824232 393.49668,118.130859 C393.49668,115.095688 392.9669,112.80909 391.907324,111.270996 C390.847749,109.732902 389.135363,108.963867 386.770117,108.963867 C385.717378,108.963867 384.787699,109.189451 383.981055,109.640625 C383.17441,110.091799 382.525003,110.720699 382.032813,111.527344 C381.540623,112.333988 381.168068,113.260249 380.915137,114.306152 C380.662206,115.352056 380.535742,116.497064 380.535742,117.741211 C380.535742,119.49122 380.751072,121.008783 381.181738,122.293945 C381.612405,123.579108 382.306245,124.604488 383.263281,125.370117 C384.220317,126.135746 385.402923,126.518555 386.811133,126.518555 Z M393.558203,125.739258 C392.819918,126.874029 391.835553,127.776364 390.605078,128.446289 C389.374603,129.116214 388.000594,129.451172 386.483008,129.451172 C383.516196,129.451172 381.192001,128.39503 379.510352,126.282715 C377.828703,124.1704 376.987891,121.295917 376.987891,117.65918 C376.987891,114.186506 377.842374,111.380382 379.551367,109.240723 C381.26036,107.101064 383.550376,106.03125 386.421484,106.03125 C387.911726,106.03125 389.316497,106.355954 390.63584,107.005371 C391.955182,107.654788 392.942966,108.526362 393.599219,109.620117 L393.537695,107.671875 L393.537695,97.7666016 L396.921484,97.5615234 L396.921484,129 L394.009375,129 L393.558203,125.739258 Z M403.489453,121.494141 L403.489453,106.50293 L406.934766,106.50293 L406.934766,121.535156 C406.934766,122.519536 407.074901,123.353512 407.355176,124.037109 C407.635451,124.720707 408.038767,125.250486 408.565137,125.626465 C409.091507,126.002443 409.686227,126.27246 410.349317,126.436523 C411.012406,126.600587 411.774605,126.682617 412.635938,126.682617 C414.41329,126.682617 415.797554,126.292973 416.78877,125.513672 C417.779986,124.734371 418.275586,123.408212 418.275586,121.535156 L418.275586,106.50293 L421.720899,106.50293 L421.720899,121.494141 C421.720899,122.642584 421.556838,123.6748 421.228711,124.59082 C420.900584,125.506841 420.459671,126.26904 419.905957,126.877441 C419.352244,127.485843 418.685746,127.988279 417.906446,128.384766 C417.127145,128.781252 416.303423,129.068358 415.435254,129.246094 C414.567086,129.423829 413.63399,129.512695 412.635938,129.512695 C411.651558,129.512695 410.72188,129.423829 409.846875,129.246094 C408.971871,129.068358 408.141313,128.777834 407.355176,128.374512 C406.569039,127.971189 405.892288,127.465335 405.324903,126.856934 C404.757517,126.248532 404.309767,125.486333 403.981641,124.570312 C403.653514,123.654292 403.489453,122.628912 403.489453,121.494141 Z M434.277149,129.410156 C432.089638,129.410156 430.541313,128.822272 429.632129,127.646484 C428.722945,126.470697 428.26836,124.426772 428.26836,121.514648 L428.26836,97.7666016 L431.672657,97.5615234 L431.672657,120.161133 C431.672657,121.090825 431.68291,121.835935 431.703418,122.396484 C431.723926,122.957034 431.775195,123.507322 431.857227,124.047363 C431.939259,124.587405 432.048632,124.994139 432.185352,125.267578 C432.322071,125.541017 432.520311,125.790526 432.780078,126.016113 C433.039845,126.2417 433.350877,126.392089 433.713184,126.467285 C434.07549,126.542481 434.52324,126.580078 435.056446,126.580078 C435.493948,126.580078 436.355267,126.498048 437.64043,126.333984 L437.825,129.061523 C436.41679,129.293946 435.234185,129.410156 434.277149,129.410156 Z M448.474024,129.410156 C446.259169,129.410156 444.686919,128.870123 443.757227,127.790039 C442.827535,126.709956 442.335352,124.966809 442.280664,122.560547 L442.280664,109.045898 L438.937891,109.045898 L439.081446,106.790039 L442.260157,106.50293 L443.429102,101.355469 L445.684961,101.273438 L445.684961,106.50293 L451.939844,106.50293 L451.939844,109.045898 L445.684961,109.045898 L445.684961,121.945312 C445.684961,123.654305 445.944724,124.857418 446.464258,125.554688 C446.983792,126.251957 447.872455,126.600586 449.130274,126.600586 C449.581448,126.600586 450.558977,126.491212 452.062891,126.272461 L452.206446,128.979492 C450.579484,129.266603 449.335356,129.410156 448.474024,129.410156 Z M475.637305,126.703125 C477.264267,126.703125 478.696381,126.255376 479.933692,125.359863 C481.171003,124.464351 481.967382,123.25782 482.322852,121.740234 L482.322852,117.946289 C482.254492,117.946289 481.840922,117.980468 481.082129,118.048828 C480.323337,118.117188 479.827736,118.158203 479.595313,118.171875 C476.628501,118.431642 474.560651,118.916989 473.3917,119.62793 C472.222749,120.338871 471.638282,121.480461 471.638282,123.052734 C471.638282,124.255865 471.993747,125.165036 472.704688,125.780273 C473.415629,126.395511 474.393158,126.703125 475.637305,126.703125 Z M483.081641,129 C482.876562,128.124996 482.678322,127.181646 482.486915,126.169922 C481.242768,127.414069 480.073834,128.275388 478.980079,128.753906 C477.886323,129.232424 476.60118,129.47168 475.12461,129.47168 C473.019131,129.47168 471.327253,128.921392 470.048926,127.820801 C468.7706,126.720209 468.131446,125.137706 468.131446,123.073242 C468.131446,120.776356 469.003019,119.074224 470.746192,117.966797 C472.489365,116.859369 475.001547,116.168947 478.282813,115.895508 C478.733987,115.854492 479.414156,115.796387 480.32334,115.721191 C481.232525,115.645996 481.912694,115.587891 482.363868,115.546875 L482.363868,113.557617 C482.363868,111.971672 481.994731,110.795902 481.256446,110.030273 C480.518161,109.264645 479.356063,108.881836 477.770118,108.881836 C475.555263,108.881836 473.319934,109.428705 471.064063,110.522461 C470.995703,110.358398 470.817971,109.883305 470.53086,109.097168 C470.243749,108.311031 470.09336,107.904297 470.079688,107.876953 C471.07774,107.316403 472.263763,106.868654 473.637794,106.533691 C475.011824,106.198729 476.409759,106.03125 477.831641,106.03125 C480.63439,106.03125 482.654389,106.64306 483.8917,107.866699 C485.129011,109.090338 485.747657,111.17186 485.747657,114.111328 L485.747657,129 L483.081641,129 Z M493.053907,129 L493.053907,106.50293 L495.925001,106.50293 L496.355665,109.722656 C497.244341,108.615229 498.35517,107.723148 499.688184,107.046387 C501.021199,106.369626 502.460149,106.03125 504.005079,106.03125 C506.602748,106.03125 508.523627,106.75927 509.767774,108.215332 C511.011921,109.671394 511.633985,111.910141 511.633985,114.931641 L511.633985,129 L508.20918,129 C508.20918,119.976517 508.202344,115.143558 508.188673,114.500977 C508.133985,112.586904 507.747758,111.185551 507.029981,110.296875 C506.312204,109.408199 505.112509,108.963867 503.43086,108.963867 C501.667179,108.963867 500.197467,109.387691 499.02168,110.235352 C497.845893,111.083012 497.080276,112.183587 496.724805,113.537109 C496.588086,114.45313 496.519727,115.505853 496.519727,116.695312 L496.519727,129 L493.053907,129 Z M527.512501,126.518555 C529.768371,126.518555 531.446577,125.793953 532.547169,124.344727 C533.64776,122.895501 534.198048,120.824232 534.198048,118.130859 C534.198048,115.095688 533.668268,112.80909 532.608692,111.270996 C531.549117,109.732902 529.836731,108.963867 527.471485,108.963867 C526.418745,108.963867 525.489067,109.189451 524.682423,109.640625 C523.875778,110.091799 523.22637,110.720699 522.73418,111.527344 C522.24199,112.333988 521.869436,113.260249 521.616505,114.306152 C521.363574,115.352056 521.23711,116.497064 521.23711,117.741211 C521.23711,119.49122 521.45244,121.008783 521.883106,122.293945 C522.313772,123.579108 523.007613,124.604488 523.964649,125.370117 C524.921685,126.135746 526.104291,126.518555 527.512501,126.518555 Z M534.259571,125.739258 C533.521286,126.874029 532.536921,127.776364 531.306446,128.446289 C530.075971,129.116214 528.701961,129.451172 527.184376,129.451172 C524.217564,129.451172 521.893369,128.39503 520.21172,126.282715 C518.53007,124.1704 517.689259,121.295917 517.689259,117.65918 C517.689259,114.186506 518.543742,111.380382 520.252735,109.240723 C521.961728,107.101064 524.251744,106.03125 527.122852,106.03125 C528.613094,106.03125 530.017865,106.355954 531.337208,107.005371 C532.65655,107.654788 533.644333,108.526362 534.300587,109.620117 L534.239063,107.671875 L534.239063,97.7666016 L537.622852,97.5615234 L537.622852,129 L534.710743,129 L534.259571,125.739258 Z M566.939454,106.297852 C567.554692,106.297852 568.115233,106.338867 568.621095,106.420898 L568.498048,109.579102 C567.869138,109.469726 567.322269,109.415039 566.857423,109.415039 C564.943351,109.415039 563.388191,110.081536 562.191895,111.414551 C560.9956,112.747565 560.397462,114.398428 560.397462,116.367188 L560.397462,129 L556.972657,129 C556.958985,115.191337 556.952149,107.692389 556.952149,106.50293 L559.802735,106.50293 L560.13086,110.542969 C560.910161,109.271478 561.901362,108.246098 563.104493,107.466797 C564.307624,106.687496 565.585932,106.297852 566.939454,106.297852 Z M581.977149,108.861328 C580.227141,108.861328 578.798444,109.479974 577.691017,110.717285 C576.583589,111.954596 575.934182,113.646474 575.742774,115.792969 L587.616798,115.792969 C587.616798,113.564442 587.114362,111.852057 586.109474,110.655762 C585.104586,109.459467 583.727158,108.861328 581.977149,108.861328 Z M582.653907,129.47168 C579.386313,129.47168 576.812608,128.432628 574.932716,126.354492 C573.052824,124.276357 572.112892,121.432635 572.112892,117.823242 C572.112892,114.336897 573.022062,111.510265 574.840431,109.343262 C576.658799,107.176259 579.051353,106.072266 582.018165,106.03125 C584.807242,106.03125 587.018645,106.984854 588.652442,108.89209 C590.28624,110.799326 591.103126,113.345687 591.103126,116.53125 C591.103126,116.695313 591.099708,116.996092 591.092872,117.433594 C591.086036,117.871096 591.082618,118.185546 591.082618,118.376953 L575.640235,118.376953 C575.681251,120.933607 576.340913,122.926262 577.619239,124.35498 C578.897566,125.783699 580.616787,126.498047 582.776954,126.498047 C585.155872,126.498047 587.541591,125.869147 589.934181,124.611328 L590.467384,127.379883 C588.184169,128.774421 585.579703,129.47168 582.653907,129.47168 Z M605.997267,126.067383 C607.159382,126.067383 608.177926,125.862307 609.052931,125.452148 C609.927935,125.04199 610.611522,124.474613 611.103712,123.75 C611.595902,123.025387 611.961621,122.218754 612.20088,121.330078 C612.440139,120.441402 612.559767,119.470708 612.559767,118.417969 L612.559767,116.756836 C612.559767,115.66308 612.436721,114.65479 612.190626,113.731934 C611.944531,112.809077 611.56514,111.981937 611.052443,111.250488 C610.539745,110.519039 609.856158,109.948244 609.001661,109.538086 C608.147165,109.127928 607.152546,108.922852 606.017775,108.922852 C605.07441,108.922852 604.216509,109.100584 603.444044,109.456055 C602.671579,109.811525 602.035843,110.279782 601.536818,110.86084 C601.037792,111.441897 600.613968,112.118648 600.265333,112.891113 C599.916699,113.663578 599.667189,114.446285 599.516798,115.239258 C599.366407,116.032231 599.291212,116.832027 599.291212,117.638672 C599.291212,118.431645 599.373243,119.21777 599.537306,119.99707 C599.701369,120.776371 599.961132,121.535153 600.316603,122.273438 C600.672073,123.011722 601.102733,123.657712 601.608595,124.211426 C602.114457,124.765139 602.746775,125.212889 603.505568,125.554688 C604.26436,125.896486 605.094919,126.067383 605.997267,126.067383 Z M600.726759,139.294922 L600.419142,136.198242 L604.602736,136.198242 C605.764851,136.198242 606.776559,136.116212 607.637892,135.952148 C608.499224,135.788085 609.21699,135.518068 609.791212,135.14209 C610.365434,134.766111 610.830273,134.349123 611.185743,133.891113 C611.541214,133.433103 611.811231,132.838383 611.995802,132.106934 C612.180373,131.375485 612.303419,130.650882 612.364943,129.933105 C612.426466,129.215328 612.457228,128.336919 612.457228,127.297852 L612.457228,125.308594 C611.636911,126.484381 610.686725,127.390134 609.606642,128.025879 C608.526558,128.661624 607.152549,128.979492 605.484571,128.979492 C604.199409,128.979492 603.013385,128.757326 601.926466,128.312988 C600.839546,127.86865 599.92354,127.277347 599.178419,126.539062 C598.433298,125.800778 597.797562,124.946294 597.271193,123.975586 C596.744823,123.004878 596.362014,122.000005 596.122755,120.960938 C595.883496,119.92187 595.763868,118.875982 595.763868,117.823242 C595.763868,116.182609 595.965526,114.665046 596.368849,113.270508 C596.772171,111.87597 597.37031,110.631841 598.163282,109.538086 C598.956255,108.44433 599.998725,107.586429 601.290724,106.964355 C602.582722,106.342282 604.062688,106.03125 605.730665,106.03125 C607.207235,106.03125 608.495796,106.314939 609.596388,106.882324 C610.696979,107.44971 611.684762,108.321283 612.559767,109.49707 L612.559767,106.50293 L615.90254,106.50293 L615.90254,127.379883 C615.90254,128.336919 615.878615,129.174313 615.830763,129.89209 C615.782911,130.609867 615.666701,131.406246 615.48213,132.28125 C615.297559,133.156254 615.04805,133.9082 614.733595,134.537109 C614.41914,135.166019 613.978227,135.798337 613.410841,136.434082 C612.843455,137.069827 612.166704,137.582518 611.380568,137.972168 C610.594431,138.361818 609.620319,138.679686 608.458204,138.925781 C607.296089,139.171876 605.983602,139.294922 604.520704,139.294922 L600.726759,139.294922 Z M627.043751,106.50293 L627.043751,129 L623.598439,129 L623.598439,106.50293 L627.043751,106.50293 Z M627.043751,98.3203125 L627.043751,102.380859 L623.598439,102.380859 L623.598439,98.3203125 L627.043751,98.3203125 Z M641.589259,129.47168 C640.058001,129.47168 638.646395,129.307619 637.354396,128.979492 C636.062397,128.651366 635.013091,128.227542 634.206447,127.708008 L634.637111,124.816406 C636.920325,126.033209 639.16249,126.641602 641.363673,126.641602 C644.699627,126.641602 646.415431,125.465832 646.511134,123.114258 C646.511134,122.116206 646.155669,121.330081 645.444728,120.755859 C644.733787,120.181638 643.33927,119.539066 641.261134,118.828125 L639.558986,118.233398 C637.590226,117.577145 636.185455,116.763677 635.34463,115.792969 C634.503806,114.822261 634.076564,113.612312 634.062892,112.163086 C634.062892,110.399405 634.770404,108.936529 636.185451,107.774414 C637.600497,106.612299 639.538466,106.03125 641.999415,106.03125 C644.542397,106.03125 646.859757,106.523433 648.951564,107.507812 L647.946681,110.132812 C645.82753,109.257808 643.845128,108.820312 641.999415,108.820312 C640.563861,108.820312 639.439361,109.104001 638.62588,109.671387 C637.8124,110.238772 637.405665,111.035151 637.405665,112.060547 C637.405665,112.935551 637.699608,113.605466 638.287501,114.070312 C638.875395,114.535159 640.051164,115.068356 641.814845,115.669922 C642.266019,115.833985 642.833396,116.02539 643.516994,116.244141 C645.786536,116.982426 647.392965,117.853999 648.336329,118.858887 C649.279694,119.863775 649.751369,121.220695 649.751369,122.929688 C649.724025,125.007823 648.978915,126.61767 647.516017,127.759277 C646.053119,128.900885 644.077553,129.47168 641.589259,129.47168 Z M663.004884,129.410156 C660.790029,129.410156 659.21778,128.870123 658.288087,127.790039 C657.358395,126.709956 656.866213,124.966809 656.811525,122.560547 L656.811525,109.045898 L653.468751,109.045898 L653.612306,106.790039 L656.791017,106.50293 L657.959962,101.355469 L660.215822,101.273438 L660.215822,106.50293 L666.470705,106.50293 L666.470705,109.045898 L660.215822,109.045898 L660.215822,121.945312 C660.215822,123.654305 660.475585,124.857418 660.995119,125.554688 C661.514652,126.251957 662.403315,126.600586 663.661134,126.600586 C664.112308,126.600586 665.089838,126.491212 666.593751,126.272461 L666.737306,128.979492 C665.110345,129.266603 663.866217,129.410156 663.004884,129.410156 Z M680.400978,108.861328 C678.650969,108.861328 677.222273,109.479974 676.114845,110.717285 C675.007418,111.954596 674.35801,113.646474 674.166603,115.792969 L686.040627,115.792969 C686.040627,113.564442 685.53819,111.852057 684.533302,110.655762 C683.528414,109.459467 682.150987,108.861328 680.400978,108.861328 Z M681.077736,129.47168 C677.810141,129.47168 675.236437,128.432628 673.356544,126.354492 C671.476652,124.276357 670.53672,121.432635 670.53672,117.823242 C670.53672,114.336897 671.445891,111.510265 673.264259,109.343262 C675.082628,107.176259 677.475182,106.072266 680.441994,106.03125 C683.23107,106.03125 685.442474,106.984854 687.076271,108.89209 C688.710068,110.799326 689.526955,113.345687 689.526955,116.53125 C689.526955,116.695313 689.523537,116.996092 689.516701,117.433594 C689.509865,117.871096 689.506447,118.185546 689.506447,118.376953 L674.064064,118.376953 C674.10508,120.933607 674.764741,122.926262 676.043068,124.35498 C677.321395,125.783699 679.040616,126.498047 681.200783,126.498047 C683.579701,126.498047 685.965419,125.869147 688.358009,124.611328 L688.891212,127.379883 C686.607998,128.774421 684.003532,129.47168 681.077736,129.47168 Z M705.774611,106.297852 C706.389848,106.297852 706.95039,106.338867 707.456252,106.420898 L707.333205,109.579102 C706.704295,109.469726 706.157426,109.415039 705.69258,109.415039 C703.778508,109.415039 702.223347,110.081536 701.027052,111.414551 C699.830757,112.747565 699.232619,114.398428 699.232619,116.367188 L699.232619,129 L695.807814,129 C695.794142,115.191337 695.787306,107.692389 695.787306,106.50293 L698.637892,106.50293 L698.966017,110.542969 C699.745318,109.271478 700.736519,108.246098 701.93965,107.466797 C703.142781,106.687496 704.421089,106.297852 705.774611,106.297852 Z M720.812306,108.861328 C719.062298,108.861328 717.633601,109.479974 716.526174,110.717285 C715.418746,111.954596 714.769339,113.646474 714.577931,115.792969 L726.451955,115.792969 C726.451955,113.564442 725.949518,111.852057 724.944631,110.655762 C723.939743,109.459467 722.562315,108.861328 720.812306,108.861328 Z M721.489064,129.47168 C718.22147,129.47168 715.647765,128.432628 713.767873,126.354492 C711.887981,124.276357 710.948049,121.432635 710.948049,117.823242 C710.948049,114.336897 711.857219,111.510265 713.675588,109.343262 C715.493956,107.176259 717.88651,106.072266 720.853322,106.03125 C723.642398,106.03125 725.853802,106.984854 727.487599,108.89209 C729.121397,110.799326 729.938283,113.345687 729.938283,116.53125 C729.938283,116.695313 729.934865,116.996092 729.928029,117.433594 C729.921193,117.871096 729.917775,118.185546 729.917775,118.376953 L714.475392,118.376953 C714.516408,120.933607 715.17607,122.926262 716.454396,124.35498 C717.732723,125.783699 719.451944,126.498047 721.612111,126.498047 C723.991029,126.498047 726.376748,125.869147 728.769338,124.611328 L729.302541,127.379883 C727.019326,128.774421 724.41486,129.47168 721.489064,129.47168 Z M744.873439,126.518555 C747.12931,126.518555 748.807516,125.793953 749.908107,124.344727 C751.008699,122.895501 751.558986,120.824232 751.558986,118.130859 C751.558986,115.095688 751.029206,112.80909 749.969631,111.270996 C748.910055,109.732902 747.19767,108.963867 744.832424,108.963867 C743.779684,108.963867 742.850006,109.189451 742.043361,109.640625 C741.236717,110.091799 740.587309,110.720699 740.095119,111.527344 C739.602929,112.333988 739.230374,113.260249 738.977443,114.306152 C738.724512,115.352056 738.598049,116.497064 738.598049,117.741211 C738.598049,119.49122 738.813379,121.008783 739.244045,122.293945 C739.674711,123.579108 740.368552,124.604488 741.325588,125.370117 C742.282624,126.135746 743.465229,126.518555 744.873439,126.518555 Z M751.62051,125.739258 C750.882225,126.874029 749.89786,127.776364 748.667385,128.446289 C747.43691,129.116214 746.0629,129.451172 744.545314,129.451172 C741.578503,129.451172 739.254307,128.39503 737.572658,126.282715 C735.891009,124.1704 735.050197,121.295917 735.050197,117.65918 C735.050197,114.186506 735.904681,111.380382 737.613674,109.240723 C739.322667,107.101064 741.612683,106.03125 744.483791,106.03125 C745.974033,106.03125 747.378804,106.355954 748.698146,107.005371 C750.017489,107.654788 751.005272,108.526362 751.661525,109.620117 L751.600002,107.671875 L751.600002,97.7666016 L754.983791,97.5615234 L754.983791,129 L752.071681,129 L751.62051,125.739258 Z M783.049416,108.861328 C781.299407,108.861328 779.870711,109.479974 778.763283,110.717285 C777.655856,111.954596 777.006448,113.646474 776.815041,115.792969 L788.689065,115.792969 C788.689065,113.564442 788.186628,111.852057 787.18174,110.655762 C786.176852,109.459467 784.799425,108.861328 783.049416,108.861328 Z M783.726174,129.47168 C780.458579,129.47168 777.884875,128.432628 776.004982,126.354492 C774.12509,124.276357 773.185158,121.432635 773.185158,117.823242 C773.185158,114.336897 774.094329,111.510265 775.912697,109.343262 C777.731066,107.176259 780.12362,106.072266 783.090432,106.03125 C785.879508,106.03125 788.090912,106.984854 789.724709,108.89209 C791.358506,110.799326 792.175393,113.345687 792.175393,116.53125 C792.175393,116.695313 792.171975,116.996092 792.165139,117.433594 C792.158303,117.871096 792.154885,118.185546 792.154885,118.376953 L776.712502,118.376953 C776.753518,120.933607 777.413179,122.926262 778.691506,124.35498 C779.969833,125.783699 781.689054,126.498047 783.849221,126.498047 C786.228139,126.498047 788.613857,125.869147 791.006447,124.611328 L791.53965,127.379883 C789.256436,128.774421 786.65197,129.47168 783.726174,129.47168 Z M804.588088,126.703125 C806.215049,126.703125 807.647164,126.255376 808.884475,125.359863 C810.121786,124.464351 810.918164,123.25782 811.273635,121.740234 L811.273635,117.946289 C811.205275,117.946289 810.791705,117.980468 810.032912,118.048828 C809.274119,118.117188 808.778519,118.158203 808.546096,118.171875 C805.579284,118.431642 803.511434,118.916989 802.342483,119.62793 C801.173531,120.338871 800.589065,121.480461 800.589065,123.052734 C800.589065,124.255865 800.94453,125.165036 801.655471,125.780273 C802.366412,126.395511 803.343941,126.703125 804.588088,126.703125 Z M812.032424,129 C811.827345,128.124996 811.629105,127.181646 811.437697,126.169922 C810.193551,127.414069 809.024617,128.275388 807.930861,128.753906 C806.837106,129.232424 805.551963,129.47168 804.075393,129.47168 C801.969913,129.47168 800.278036,128.921392 798.999709,127.820801 C797.721382,126.720209 797.082229,125.137706 797.082229,123.073242 C797.082229,120.776356 797.953802,119.074224 799.696975,117.966797 C801.440148,116.859369 803.952329,116.168947 807.233596,115.895508 C807.68477,115.854492 808.364939,115.796387 809.274123,115.721191 C810.183307,115.645996 810.863476,115.587891 811.314651,115.546875 L811.314651,113.557617 C811.314651,111.971672 810.945514,110.795902 810.207229,110.030273 C809.468944,109.264645 808.306846,108.881836 806.720901,108.881836 C804.506046,108.881836 802.270717,109.428705 800.014846,110.522461 C799.946486,110.358398 799.768754,109.883305 799.481643,109.097168 C799.194532,108.311031 799.044143,107.904297 799.030471,107.876953 C800.028523,107.316403 801.214546,106.868654 802.588576,106.533691 C803.962607,106.198729 805.360542,106.03125 806.782424,106.03125 C809.585172,106.03125 811.605172,106.64306 812.842483,107.866699 C814.079793,109.090338 814.69844,111.17186 814.69844,114.111328 L814.69844,129 L812.032424,129 Z M832.094533,106.297852 C832.709771,106.297852 833.270312,106.338867 833.776174,106.420898 L833.653127,109.579102 C833.024218,109.469726 832.477348,109.415039 832.012502,109.415039 C830.09843,109.415039 828.54327,110.081536 827.346975,111.414551 C826.15068,112.747565 825.552541,114.398428 825.552541,116.367188 L825.552541,129 L822.127737,129 C822.114065,115.191337 822.107229,107.692389 822.107229,106.50293 L824.957815,106.50293 L825.28594,110.542969 C826.06524,109.271478 827.056441,108.246098 828.259573,107.466797 C829.462704,106.687496 830.741011,106.297852 832.094533,106.297852 Z M844.753323,129.410156 C842.565812,129.410156 841.017487,128.822272 840.108303,127.646484 C839.199119,126.470697 838.744534,124.426772 838.744534,121.514648 L838.744534,97.7666016 L842.14883,97.5615234 L842.14883,120.161133 C842.14883,121.090825 842.159084,121.835935 842.179592,122.396484 C842.2001,122.957034 842.251369,123.507322 842.333401,124.047363 C842.415432,124.587405 842.524806,124.994139 842.661526,125.267578 C842.798245,125.541017 842.996485,125.790526 843.256252,126.016113 C843.516019,126.2417 843.827051,126.392089 844.189358,126.467285 C844.551664,126.542481 844.999414,126.580078 845.532619,126.580078 C845.970122,126.580078 846.831441,126.498048 848.116604,126.333984 L848.301174,129.061523 C846.892964,129.293946 845.710359,129.410156 844.753323,129.410156 Z M848.90137,106.50293 L852.531252,106.50293 L859.626956,125.226562 L865.943362,106.50293 L869.573245,106.50293 C863.502902,123.210044 860.365238,131.82324 860.160159,132.342773 C859.216795,134.70802 858.075204,136.440912 856.735354,137.541504 C855.395503,138.642095 853.631849,139.192383 851.444338,139.192383 C850.788085,139.192383 850.097662,139.137696 849.373049,139.02832 L849.167971,136.116211 C849.9336,136.170899 850.507813,136.198242 850.890627,136.198242 C852.435557,136.198242 853.607909,135.914554 854.407717,135.347168 C855.207526,134.779782 855.921874,133.716805 856.550784,132.158203 C857.111333,130.722649 857.528321,129.615238 857.80176,128.835938 L848.90137,106.50293 Z M365.292969,300.408203 C362.408189,292.027302 360.815431,287.317388 360.514648,286.27832 L355.53125,300.408203 L365.292969,300.408203 Z M369.989258,313 L366.441406,303.381836 L354.341797,303.381836 L350.670898,313 L347.061523,313 L358.709961,282.607422 L362.339844,282.607422 L373.639648,313 L369.989258,313 Z M386.811133,310.518555 C389.067004,310.518555 390.745209,309.793953 391.845801,308.344727 C392.946392,306.895501 393.49668,304.824232 393.49668,302.130859 C393.49668,299.095688 392.9669,296.80909 391.907324,295.270996 C390.847749,293.732902 389.135363,292.963867 386.770117,292.963867 C385.717378,292.963867 384.787699,293.189451 383.981055,293.640625 C383.17441,294.091799 382.525003,294.720699 382.032813,295.527344 C381.540623,296.333988 381.168068,297.260249 380.915137,298.306152 C380.662206,299.352056 380.535742,300.497064 380.535742,301.741211 C380.535742,303.49122 380.751072,305.008783 381.181738,306.293945 C381.612405,307.579108 382.306245,308.604488 383.263281,309.370117 C384.220317,310.135746 385.402923,310.518555 386.811133,310.518555 Z M393.558203,309.739258 C392.819918,310.874029 391.835553,311.776364 390.605078,312.446289 C389.374603,313.116214 388.000594,313.451172 386.483008,313.451172 C383.516196,313.451172 381.192001,312.39503 379.510352,310.282715 C377.828703,308.1704 376.987891,305.295917 376.987891,301.65918 C376.987891,298.186506 377.842374,295.380382 379.551367,293.240723 C381.26036,291.101064 383.550376,290.03125 386.421484,290.03125 C387.911726,290.03125 389.316497,290.355954 390.63584,291.005371 C391.955182,291.654788 392.942966,292.526362 393.599219,293.620117 L393.537695,291.671875 L393.537695,281.766602 L396.921484,281.561523 L396.921484,313 L394.009375,313 L393.558203,309.739258 Z M403.489453,305.494141 L403.489453,290.50293 L406.934766,290.50293 L406.934766,305.535156 C406.934766,306.519536 407.074901,307.353512 407.355176,308.037109 C407.635451,308.720707 408.038767,309.250486 408.565137,309.626465 C409.091507,310.002443 409.686227,310.27246 410.349317,310.436523 C411.012406,310.600587 411.774605,310.682617 412.635938,310.682617 C414.41329,310.682617 415.797554,310.292973 416.78877,309.513672 C417.779986,308.734371 418.275586,307.408212 418.275586,305.535156 L418.275586,290.50293 L421.720899,290.50293 L421.720899,305.494141 C421.720899,306.642584 421.556838,307.6748 421.228711,308.59082 C420.900584,309.506841 420.459671,310.26904 419.905957,310.877441 C419.352244,311.485843 418.685746,311.988279 417.906446,312.384766 C417.127145,312.781252 416.303423,313.068358 415.435254,313.246094 C414.567086,313.423829 413.63399,313.512695 412.635938,313.512695 C411.651558,313.512695 410.72188,313.423829 409.846875,313.246094 C408.971871,313.068358 408.141313,312.777834 407.355176,312.374512 C406.569039,311.971189 405.892288,311.465335 405.324903,310.856934 C404.757517,310.248532 404.309767,309.486333 403.981641,308.570312 C403.653514,307.654292 403.489453,306.628912 403.489453,305.494141 Z M434.277149,313.410156 C432.089638,313.410156 430.541313,312.822272 429.632129,311.646484 C428.722945,310.470697 428.26836,308.426772 428.26836,305.514648 L428.26836,281.766602 L431.672657,281.561523 L431.672657,304.161133 C431.672657,305.090825 431.68291,305.835935 431.703418,306.396484 C431.723926,306.957034 431.775195,307.507322 431.857227,308.047363 C431.939259,308.587405 432.048632,308.994139 432.185352,309.267578 C432.322071,309.541017 432.520311,309.790526 432.780078,310.016113 C433.039845,310.2417 433.350877,310.392089 433.713184,310.467285 C434.07549,310.542481 434.52324,310.580078 435.056446,310.580078 C435.493948,310.580078 436.355267,310.498048 437.64043,310.333984 L437.825,313.061523 C436.41679,313.293946 435.234185,313.410156 434.277149,313.410156 Z M448.474024,313.410156 C446.259169,313.410156 444.686919,312.870123 443.757227,311.790039 C442.827535,310.709956 442.335352,308.966809 442.280664,306.560547 L442.280664,293.045898 L438.937891,293.045898 L439.081446,290.790039 L442.260157,290.50293 L443.429102,285.355469 L445.684961,285.273438 L445.684961,290.50293 L451.939844,290.50293 L451.939844,293.045898 L445.684961,293.045898 L445.684961,305.945312 C445.684961,307.654305 445.944724,308.857418 446.464258,309.554688 C446.983792,310.251957 447.872455,310.600586 449.130274,310.600586 C449.581448,310.600586 450.558977,310.491212 452.062891,310.272461 L452.206446,312.979492 C450.579484,313.266603 449.335356,313.410156 448.474024,313.410156 Z M475.637305,310.703125 C477.264267,310.703125 478.696381,310.255376 479.933692,309.359863 C481.171003,308.464351 481.967382,307.25782 482.322852,305.740234 L482.322852,301.946289 C482.254492,301.946289 481.840922,301.980468 481.082129,302.048828 C480.323337,302.117188 479.827736,302.158203 479.595313,302.171875 C476.628501,302.431642 474.560651,302.916989 473.3917,303.62793 C472.222749,304.338871 471.638282,305.480461 471.638282,307.052734 C471.638282,308.255865 471.993747,309.165036 472.704688,309.780273 C473.415629,310.395511 474.393158,310.703125 475.637305,310.703125 Z M483.081641,313 C482.876562,312.124996 482.678322,311.181646 482.486915,310.169922 C481.242768,311.414069 480.073834,312.275388 478.980079,312.753906 C477.886323,313.232424 476.60118,313.47168 475.12461,313.47168 C473.019131,313.47168 471.327253,312.921392 470.048926,311.820801 C468.7706,310.720209 468.131446,309.137706 468.131446,307.073242 C468.131446,304.776356 469.003019,303.074224 470.746192,301.966797 C472.489365,300.859369 475.001547,300.168947 478.282813,299.895508 C478.733987,299.854492 479.414156,299.796387 480.32334,299.721191 C481.232525,299.645996 481.912694,299.587891 482.363868,299.546875 L482.363868,297.557617 C482.363868,295.971672 481.994731,294.795902 481.256446,294.030273 C480.518161,293.264645 479.356063,292.881836 477.770118,292.881836 C475.555263,292.881836 473.319934,293.428705 471.064063,294.522461 C470.995703,294.358398 470.817971,293.883305 470.53086,293.097168 C470.243749,292.311031 470.09336,291.904297 470.079688,291.876953 C471.07774,291.316403 472.263763,290.868654 473.637794,290.533691 C475.011824,290.198729 476.409759,290.03125 477.831641,290.03125 C480.63439,290.03125 482.654389,290.64306 483.8917,291.866699 C485.129011,293.090338 485.747657,295.17186 485.747657,298.111328 L485.747657,313 L483.081641,313 Z M493.053907,313 L493.053907,290.50293 L495.925001,290.50293 L496.355665,293.722656 C497.244341,292.615229 498.35517,291.723148 499.688184,291.046387 C501.021199,290.369626 502.460149,290.03125 504.005079,290.03125 C506.602748,290.03125 508.523627,290.75927 509.767774,292.215332 C511.011921,293.671394 511.633985,295.910141 511.633985,298.931641 L511.633985,313 L508.20918,313 C508.20918,303.976517 508.202344,299.143558 508.188673,298.500977 C508.133985,296.586904 507.747758,295.185551 507.029981,294.296875 C506.312204,293.408199 505.112509,292.963867 503.43086,292.963867 C501.667179,292.963867 500.197467,293.387691 499.02168,294.235352 C497.845893,295.083012 497.080276,296.183587 496.724805,297.537109 C496.588086,298.45313 496.519727,299.505853 496.519727,300.695312 L496.519727,313 L493.053907,313 Z M527.512501,310.518555 C529.768371,310.518555 531.446577,309.793953 532.547169,308.344727 C533.64776,306.895501 534.198048,304.824232 534.198048,302.130859 C534.198048,299.095688 533.668268,296.80909 532.608692,295.270996 C531.549117,293.732902 529.836731,292.963867 527.471485,292.963867 C526.418745,292.963867 525.489067,293.189451 524.682423,293.640625 C523.875778,294.091799 523.22637,294.720699 522.73418,295.527344 C522.24199,296.333988 521.869436,297.260249 521.616505,298.306152 C521.363574,299.352056 521.23711,300.497064 521.23711,301.741211 C521.23711,303.49122 521.45244,305.008783 521.883106,306.293945 C522.313772,307.579108 523.007613,308.604488 523.964649,309.370117 C524.921685,310.135746 526.104291,310.518555 527.512501,310.518555 Z M534.259571,309.739258 C533.521286,310.874029 532.536921,311.776364 531.306446,312.446289 C530.075971,313.116214 528.701961,313.451172 527.184376,313.451172 C524.217564,313.451172 521.893369,312.39503 520.21172,310.282715 C518.53007,308.1704 517.689259,305.295917 517.689259,301.65918 C517.689259,298.186506 518.543742,295.380382 520.252735,293.240723 C521.961728,291.101064 524.251744,290.03125 527.122852,290.03125 C528.613094,290.03125 530.017865,290.355954 531.337208,291.005371 C532.65655,291.654788 533.644333,292.526362 534.300587,293.620117 L534.239063,291.671875 L534.239063,281.766602 L537.622852,281.561523 L537.622852,313 L534.710743,313 L534.259571,309.739258 Z M566.939454,290.297852 C567.554692,290.297852 568.115233,290.338867 568.621095,290.420898 L568.498048,293.579102 C567.869138,293.469726 567.322269,293.415039 566.857423,293.415039 C564.943351,293.415039 563.388191,294.081536 562.191895,295.414551 C560.9956,296.747565 560.397462,298.398428 560.397462,300.367188 L560.397462,313 L556.972657,313 C556.958985,299.191337 556.952149,291.692389 556.952149,290.50293 L559.802735,290.50293 L560.13086,294.542969 C560.910161,293.271478 561.901362,292.246098 563.104493,291.466797 C564.307624,290.687496 565.585932,290.297852 566.939454,290.297852 Z M581.977149,292.861328 C580.227141,292.861328 578.798444,293.479974 577.691017,294.717285 C576.583589,295.954596 575.934182,297.646474 575.742774,299.792969 L587.616798,299.792969 C587.616798,297.564442 587.114362,295.852057 586.109474,294.655762 C585.104586,293.459467 583.727158,292.861328 581.977149,292.861328 Z M582.653907,313.47168 C579.386313,313.47168 576.812608,312.432628 574.932716,310.354492 C573.052824,308.276357 572.112892,305.432635 572.112892,301.823242 C572.112892,298.336897 573.022062,295.510265 574.840431,293.343262 C576.658799,291.176259 579.051353,290.072266 582.018165,290.03125 C584.807242,290.03125 587.018645,290.984854 588.652442,292.89209 C590.28624,294.799326 591.103126,297.345687 591.103126,300.53125 C591.103126,300.695313 591.099708,300.996092 591.092872,301.433594 C591.086036,301.871096 591.082618,302.185546 591.082618,302.376953 L575.640235,302.376953 C575.681251,304.933607 576.340913,306.926262 577.619239,308.35498 C578.897566,309.783699 580.616787,310.498047 582.776954,310.498047 C585.155872,310.498047 587.541591,309.869147 589.934181,308.611328 L590.467384,311.379883 C588.184169,312.774421 585.579703,313.47168 582.653907,313.47168 Z M605.997267,310.067383 C607.159382,310.067383 608.177926,309.862307 609.052931,309.452148 C609.927935,309.04199 610.611522,308.474613 611.103712,307.75 C611.595902,307.025387 611.961621,306.218754 612.20088,305.330078 C612.440139,304.441402 612.559767,303.470708 612.559767,302.417969 L612.559767,300.756836 C612.559767,299.66308 612.436721,298.65479 612.190626,297.731934 C611.944531,296.809077 611.56514,295.981937 611.052443,295.250488 C610.539745,294.519039 609.856158,293.948244 609.001661,293.538086 C608.147165,293.127928 607.152546,292.922852 606.017775,292.922852 C605.07441,292.922852 604.216509,293.100584 603.444044,293.456055 C602.671579,293.811525 602.035843,294.279782 601.536818,294.86084 C601.037792,295.441897 600.613968,296.118648 600.265333,296.891113 C599.916699,297.663578 599.667189,298.446285 599.516798,299.239258 C599.366407,300.032231 599.291212,300.832027 599.291212,301.638672 C599.291212,302.431645 599.373243,303.21777 599.537306,303.99707 C599.701369,304.776371 599.961132,305.535153 600.316603,306.273438 C600.672073,307.011722 601.102733,307.657712 601.608595,308.211426 C602.114457,308.765139 602.746775,309.212889 603.505568,309.554688 C604.26436,309.896486 605.094919,310.067383 605.997267,310.067383 Z M600.726759,323.294922 L600.419142,320.198242 L604.602736,320.198242 C605.764851,320.198242 606.776559,320.116212 607.637892,319.952148 C608.499224,319.788085 609.21699,319.518068 609.791212,319.14209 C610.365434,318.766111 610.830273,318.349123 611.185743,317.891113 C611.541214,317.433103 611.811231,316.838383 611.995802,316.106934 C612.180373,315.375485 612.303419,314.650882 612.364943,313.933105 C612.426466,313.215328 612.457228,312.336919 612.457228,311.297852 L612.457228,309.308594 C611.636911,310.484381 610.686725,311.390134 609.606642,312.025879 C608.526558,312.661624 607.152549,312.979492 605.484571,312.979492 C604.199409,312.979492 603.013385,312.757326 601.926466,312.312988 C600.839546,311.86865 599.92354,311.277347 599.178419,310.539062 C598.433298,309.800778 597.797562,308.946294 597.271193,307.975586 C596.744823,307.004878 596.362014,306.000005 596.122755,304.960938 C595.883496,303.92187 595.763868,302.875982 595.763868,301.823242 C595.763868,300.182609 595.965526,298.665046 596.368849,297.270508 C596.772171,295.87597 597.37031,294.631841 598.163282,293.538086 C598.956255,292.44433 599.998725,291.586429 601.290724,290.964355 C602.582722,290.342282 604.062688,290.03125 605.730665,290.03125 C607.207235,290.03125 608.495796,290.314939 609.596388,290.882324 C610.696979,291.44971 611.684762,292.321283 612.559767,293.49707 L612.559767,290.50293 L615.90254,290.50293 L615.90254,311.379883 C615.90254,312.336919 615.878615,313.174313 615.830763,313.89209 C615.782911,314.609867 615.666701,315.406246 615.48213,316.28125 C615.297559,317.156254 615.04805,317.9082 614.733595,318.537109 C614.41914,319.166019 613.978227,319.798337 613.410841,320.434082 C612.843455,321.069827 612.166704,321.582518 611.380568,321.972168 C610.594431,322.361818 609.620319,322.679686 608.458204,322.925781 C607.296089,323.171876 605.983602,323.294922 604.520704,323.294922 L600.726759,323.294922 Z M627.043751,290.50293 L627.043751,313 L623.598439,313 L623.598439,290.50293 L627.043751,290.50293 Z M627.043751,282.320312 L627.043751,286.380859 L623.598439,286.380859 L623.598439,282.320312 L627.043751,282.320312 Z M641.589259,313.47168 C640.058001,313.47168 638.646395,313.307619 637.354396,312.979492 C636.062397,312.651366 635.013091,312.227542 634.206447,311.708008 L634.637111,308.816406 C636.920325,310.033209 639.16249,310.641602 641.363673,310.641602 C644.699627,310.641602 646.415431,309.465832 646.511134,307.114258 C646.511134,306.116206 646.155669,305.330081 645.444728,304.755859 C644.733787,304.181638 643.33927,303.539066 641.261134,302.828125 L639.558986,302.233398 C637.590226,301.577145 636.185455,300.763677 635.34463,299.792969 C634.503806,298.822261 634.076564,297.612312 634.062892,296.163086 C634.062892,294.399405 634.770404,292.936529 636.185451,291.774414 C637.600497,290.612299 639.538466,290.03125 641.999415,290.03125 C644.542397,290.03125 646.859757,290.523433 648.951564,291.507812 L647.946681,294.132812 C645.82753,293.257808 643.845128,292.820312 641.999415,292.820312 C640.563861,292.820312 639.439361,293.104001 638.62588,293.671387 C637.8124,294.238772 637.405665,295.035151 637.405665,296.060547 C637.405665,296.935551 637.699608,297.605466 638.287501,298.070312 C638.875395,298.535159 640.051164,299.068356 641.814845,299.669922 C642.266019,299.833985 642.833396,300.02539 643.516994,300.244141 C645.786536,300.982426 647.392965,301.853999 648.336329,302.858887 C649.279694,303.863775 649.751369,305.220695 649.751369,306.929688 C649.724025,309.007823 648.978915,310.61767 647.516017,311.759277 C646.053119,312.900885 644.077553,313.47168 641.589259,313.47168 Z M663.004884,313.410156 C660.790029,313.410156 659.21778,312.870123 658.288087,311.790039 C657.358395,310.709956 656.866213,308.966809 656.811525,306.560547 L656.811525,293.045898 L653.468751,293.045898 L653.612306,290.790039 L656.791017,290.50293 L657.959962,285.355469 L660.215822,285.273438 L660.215822,290.50293 L666.470705,290.50293 L666.470705,293.045898 L660.215822,293.045898 L660.215822,305.945312 C660.215822,307.654305 660.475585,308.857418 660.995119,309.554688 C661.514652,310.251957 662.403315,310.600586 663.661134,310.600586 C664.112308,310.600586 665.089838,310.491212 666.593751,310.272461 L666.737306,312.979492 C665.110345,313.266603 663.866217,313.410156 663.004884,313.410156 Z M680.400978,292.861328 C678.650969,292.861328 677.222273,293.479974 676.114845,294.717285 C675.007418,295.954596 674.35801,297.646474 674.166603,299.792969 L686.040627,299.792969 C686.040627,297.564442 685.53819,295.852057 684.533302,294.655762 C683.528414,293.459467 682.150987,292.861328 680.400978,292.861328 Z M681.077736,313.47168 C677.810141,313.47168 675.236437,312.432628 673.356544,310.354492 C671.476652,308.276357 670.53672,305.432635 670.53672,301.823242 C670.53672,298.336897 671.445891,295.510265 673.264259,293.343262 C675.082628,291.176259 677.475182,290.072266 680.441994,290.03125 C683.23107,290.03125 685.442474,290.984854 687.076271,292.89209 C688.710068,294.799326 689.526955,297.345687 689.526955,300.53125 C689.526955,300.695313 689.523537,300.996092 689.516701,301.433594 C689.509865,301.871096 689.506447,302.185546 689.506447,302.376953 L674.064064,302.376953 C674.10508,304.933607 674.764741,306.926262 676.043068,308.35498 C677.321395,309.783699 679.040616,310.498047 681.200783,310.498047 C683.579701,310.498047 685.965419,309.869147 688.358009,308.611328 L688.891212,311.379883 C686.607998,312.774421 684.003532,313.47168 681.077736,313.47168 Z M705.774611,290.297852 C706.389848,290.297852 706.95039,290.338867 707.456252,290.420898 L707.333205,293.579102 C706.704295,293.469726 706.157426,293.415039 705.69258,293.415039 C703.778508,293.415039 702.223347,294.081536 701.027052,295.414551 C699.830757,296.747565 699.232619,298.398428 699.232619,300.367188 L699.232619,313 L695.807814,313 C695.794142,299.191337 695.787306,291.692389 695.787306,290.50293 L698.637892,290.50293 L698.966017,294.542969 C699.745318,293.271478 700.736519,292.246098 701.93965,291.466797 C703.142781,290.687496 704.421089,290.297852 705.774611,290.297852 Z M720.812306,292.861328 C719.062298,292.861328 717.633601,293.479974 716.526174,294.717285 C715.418746,295.954596 714.769339,297.646474 714.577931,299.792969 L726.451955,299.792969 C726.451955,297.564442 725.949518,295.852057 724.944631,294.655762 C723.939743,293.459467 722.562315,292.861328 720.812306,292.861328 Z M721.489064,313.47168 C718.22147,313.47168 715.647765,312.432628 713.767873,310.354492 C711.887981,308.276357 710.948049,305.432635 710.948049,301.823242 C710.948049,298.336897 711.857219,295.510265 713.675588,293.343262 C715.493956,291.176259 717.88651,290.072266 720.853322,290.03125 C723.642398,290.03125 725.853802,290.984854 727.487599,292.89209 C729.121397,294.799326 729.938283,297.345687 729.938283,300.53125 C729.938283,300.695313 729.934865,300.996092 729.928029,301.433594 C729.921193,301.871096 729.917775,302.185546 729.917775,302.376953 L714.475392,302.376953 C714.516408,304.933607 715.17607,306.926262 716.454396,308.35498 C717.732723,309.783699 719.451944,310.498047 721.612111,310.498047 C723.991029,310.498047 726.376748,309.869147 728.769338,308.611328 L729.302541,311.379883 C727.019326,312.774421 724.41486,313.47168 721.489064,313.47168 Z M744.873439,310.518555 C747.12931,310.518555 748.807516,309.793953 749.908107,308.344727 C751.008699,306.895501 751.558986,304.824232 751.558986,302.130859 C751.558986,299.095688 751.029206,296.80909 749.969631,295.270996 C748.910055,293.732902 747.19767,292.963867 744.832424,292.963867 C743.779684,292.963867 742.850006,293.189451 742.043361,293.640625 C741.236717,294.091799 740.587309,294.720699 740.095119,295.527344 C739.602929,296.333988 739.230374,297.260249 738.977443,298.306152 C738.724512,299.352056 738.598049,300.497064 738.598049,301.741211 C738.598049,303.49122 738.813379,305.008783 739.244045,306.293945 C739.674711,307.579108 740.368552,308.604488 741.325588,309.370117 C742.282624,310.135746 743.465229,310.518555 744.873439,310.518555 Z M751.62051,309.739258 C750.882225,310.874029 749.89786,311.776364 748.667385,312.446289 C747.43691,313.116214 746.0629,313.451172 744.545314,313.451172 C741.578503,313.451172 739.254307,312.39503 737.572658,310.282715 C735.891009,308.1704 735.050197,305.295917 735.050197,301.65918 C735.050197,298.186506 735.904681,295.380382 737.613674,293.240723 C739.322667,291.101064 741.612683,290.03125 744.483791,290.03125 C745.974033,290.03125 747.378804,290.355954 748.698146,291.005371 C750.017489,291.654788 751.005272,292.526362 751.661525,293.620117 L751.600002,291.671875 L751.600002,281.766602 L754.983791,281.561523 L754.983791,313 L752.071681,313 L751.62051,309.739258 Z M780.260354,313.410156 C778.072843,313.410156 776.524518,312.822272 775.615334,311.646484 C774.70615,310.470697 774.251565,308.426772 774.251565,305.514648 L774.251565,281.766602 L777.655861,281.561523 L777.655861,304.161133 C777.655861,305.090825 777.666115,305.835935 777.686623,306.396484 C777.707131,306.957034 777.7584,307.507322 777.840432,308.047363 C777.922463,308.587405 778.031837,308.994139 778.168557,309.267578 C778.305276,309.541017 778.503516,309.790526 778.763283,310.016113 C779.02305,310.2417 779.334082,310.392089 779.696389,310.467285 C780.058695,310.542481 780.506445,310.580078 781.03965,310.580078 C781.477153,310.580078 782.338472,310.498048 783.623635,310.333984 L783.808205,313.061523 C782.399995,313.293946 781.21739,313.410156 780.260354,313.410156 Z M793.780471,310.703125 C795.407432,310.703125 796.839547,310.255376 798.076858,309.359863 C799.314168,308.464351 800.110547,307.25782 800.466018,305.740234 L800.466018,301.946289 C800.397658,301.946289 799.984088,301.980468 799.225295,302.048828 C798.466502,302.117188 797.970902,302.158203 797.738479,302.171875 C794.771667,302.431642 792.703817,302.916989 791.534865,303.62793 C790.365914,304.338871 789.781447,305.480461 789.781447,307.052734 C789.781447,308.255865 790.136913,309.165036 790.847854,309.780273 C791.558795,310.395511 792.536324,310.703125 793.780471,310.703125 Z M801.224807,313 C801.019728,312.124996 800.821487,311.181646 800.63008,310.169922 C799.385933,311.414069 798.217,312.275388 797.123244,312.753906 C796.029489,313.232424 794.744345,313.47168 793.267776,313.47168 C791.162296,313.47168 789.470419,312.921392 788.192092,311.820801 C786.913765,310.720209 786.274611,309.137706 786.274611,307.073242 C786.274611,304.776356 787.146185,303.074224 788.889358,301.966797 C790.63253,300.859369 793.144712,300.168947 796.425979,299.895508 C796.877153,299.854492 797.557322,299.796387 798.466506,299.721191 C799.37569,299.645996 800.055859,299.587891 800.507033,299.546875 L800.507033,297.557617 C800.507033,295.971672 800.137896,294.795902 799.399611,294.030273 C798.661327,293.264645 797.499229,292.881836 795.913283,292.881836 C793.698429,292.881836 791.463099,293.428705 789.207229,294.522461 C789.138869,294.358398 788.961136,293.883305 788.674026,293.097168 C788.386915,292.311031 788.236526,291.904297 788.222854,291.876953 C789.220906,291.316403 790.406929,290.868654 791.780959,290.533691 C793.154989,290.198729 794.552925,290.03125 795.974807,290.03125 C798.777555,290.03125 800.797555,290.64306 802.034865,291.866699 C803.272176,293.090338 803.890822,295.17186 803.890822,298.111328 L803.890822,313 L801.224807,313 Z M818.374807,313.410156 C816.159952,313.410156 814.587702,312.870123 813.65801,311.790039 C812.728318,310.709956 812.236135,308.966809 812.181448,306.560547 L812.181448,293.045898 L808.838674,293.045898 L808.982229,290.790039 L812.16094,290.50293 L813.329885,285.355469 L815.585744,285.273438 L815.585744,290.50293 L821.840627,290.50293 L821.840627,293.045898 L815.585744,293.045898 L815.585744,305.945312 C815.585744,307.654305 815.845507,308.857418 816.365041,309.554688 C816.884575,310.251957 817.773238,310.600586 819.031057,310.600586 C819.482231,310.600586 820.45976,310.491212 821.963674,310.272461 L822.107229,312.979492 C820.480267,313.266603 819.236139,313.410156 818.374807,313.410156 Z M835.770901,292.861328 C834.020892,292.861328 832.592195,293.479974 831.484768,294.717285 C830.377341,295.954596 829.727933,297.646474 829.536526,299.792969 L841.410549,299.792969 C841.410549,297.564442 840.908113,295.852057 839.903225,294.655762 C838.898337,293.459467 837.520909,292.861328 835.770901,292.861328 Z M836.447659,313.47168 C833.180064,313.47168 830.606359,312.432628 828.726467,310.354492 C826.846575,308.276357 825.906643,305.432635 825.906643,301.823242 C825.906643,298.336897 826.815814,295.510265 828.634182,293.343262 C830.45255,291.176259 832.845105,290.072266 835.811916,290.03125 C838.600993,290.03125 840.812396,290.984854 842.446194,292.89209 C844.079991,294.799326 844.896877,297.345687 844.896877,300.53125 C844.896877,300.695313 844.893459,300.996092 844.886623,301.433594 C844.879787,301.871096 844.876369,302.185546 844.876369,302.376953 L829.433987,302.376953 C829.475002,304.933607 830.134664,306.926262 831.412991,308.35498 C832.691317,309.783699 834.410538,310.498047 836.570705,310.498047 C838.949624,310.498047 841.335342,309.869147 843.727932,308.611328 L844.261135,311.379883 C841.977921,312.774421 839.373454,313.47168 836.447659,313.47168 Z M365.292969,484.408203 C362.408189,476.027302 360.815431,471.317388 360.514648,470.27832 L355.53125,484.408203 L365.292969,484.408203 Z M369.989258,497 L366.441406,487.381836 L354.341797,487.381836 L350.670898,497 L347.061523,497 L358.709961,466.607422 L362.339844,466.607422 L373.639648,497 L369.989258,497 Z M384.083594,497.410156 C381.896083,497.410156 380.347759,496.822272 379.438574,495.646484 C378.52939,494.470697 378.074805,492.426772 378.074805,489.514648 L378.074805,465.766602 L381.479102,465.561523 L381.479102,488.161133 C381.479102,489.090825 381.489355,489.835935 381.509863,490.396484 C381.530371,490.957034 381.58164,491.507322 381.663672,492.047363 C381.745704,492.587405 381.855078,492.994139 381.991797,493.267578 C382.128516,493.541017 382.326757,493.790526 382.586524,494.016113 C382.84629,494.2417 383.157323,494.392089 383.519629,494.467285 C383.881936,494.542481 384.329685,494.580078 384.862891,494.580078 C385.300393,494.580078 386.161712,494.498048 387.446875,494.333984 L387.631445,497.061523 C386.223235,497.293946 385.04063,497.410156 384.083594,497.410156 Z M397.152539,497.410156 C394.965028,497.410156 393.416704,496.822272 392.50752,495.646484 C391.598335,494.470697 391.14375,492.426772 391.14375,489.514648 L391.14375,465.766602 L394.548047,465.561523 L394.548047,488.161133 C394.548047,489.090825 394.558301,489.835935 394.578809,490.396484 C394.599317,490.957034 394.650586,491.507322 394.732617,492.047363 C394.814649,492.587405 394.924023,492.994139 395.060742,493.267578 C395.197462,493.541017 395.395702,493.790526 395.655469,494.016113 C395.915236,494.2417 396.226268,494.392089 396.588574,494.467285 C396.950881,494.542481 397.39863,494.580078 397.931836,494.580078 C398.369338,494.580078 399.230658,494.498048 400.515821,494.333984 L400.700391,497.061523 C399.292181,497.293946 398.109575,497.410156 397.152539,497.410156 Z M413.180079,474.50293 L416.809961,474.50293 L423.905664,493.226562 L430.222071,474.50293 L433.851954,474.50293 C427.781611,491.210044 424.643947,499.82324 424.438868,500.342773 C423.495503,502.70802 422.353913,504.440912 421.014063,505.541504 C419.674212,506.642095 417.910558,507.192383 415.723047,507.192383 C415.066794,507.192383 414.376371,507.137696 413.651758,507.02832 L413.44668,504.116211 C414.212309,504.170899 414.786522,504.198242 415.169336,504.198242 C416.714266,504.198242 417.886617,503.914554 418.686426,503.347168 C419.486235,502.779782 420.200583,501.716805 420.829493,500.158203 C421.390042,498.722649 421.80703,497.615238 422.080469,496.835938 L413.180079,474.50293 Z M440.501954,485.802734 C440.501954,488.468763 441.093256,490.604972 442.275879,492.211426 C443.458502,493.817879 445.184559,494.621094 447.454102,494.621094 C449.696301,494.621094 451.388178,493.821297 452.529786,492.22168 C453.671393,490.622062 454.242188,488.468764 454.242188,485.761719 C454.242188,483.013658 453.678229,480.850106 452.550293,479.270996 C451.422358,477.691887 449.703137,476.902344 447.392579,476.902344 C445.15038,476.902344 443.441413,477.708976 442.265625,479.322266 C441.089838,480.935555 440.501954,483.09569 440.501954,485.802734 Z M457.79004,485.741211 C457.79004,489.227556 456.860361,492.054188 455.000977,494.221191 C453.141593,496.388194 450.571306,497.47168 447.29004,497.47168 C444.131821,497.47168 441.619639,496.377941 439.753418,494.19043 C437.887198,492.002919 436.954102,489.193377 436.954102,485.761719 C436.954102,482.261701 437.890616,479.431651 439.763672,477.271484 C441.636729,475.111317 444.207015,474.03125 447.47461,474.03125 C450.687517,474.03125 453.209952,475.114735 455.041993,477.281738 C456.874033,479.448741 457.79004,482.268537 457.79004,485.741211 Z M463.250587,489.494141 L463.250587,474.50293 L466.695899,474.50293 L466.695899,489.535156 C466.695899,490.519536 466.836034,491.353512 467.116309,492.037109 C467.396584,492.720707 467.7999,493.250486 468.32627,493.626465 C468.85264,494.002443 469.447361,494.27246 470.11045,494.436523 C470.773539,494.600587 471.535738,494.682617 472.397071,494.682617 C474.174424,494.682617 475.558687,494.292973 476.549903,493.513672 C477.541119,492.734371 478.036719,491.408212 478.036719,489.535156 L478.036719,474.50293 L481.482032,474.50293 L481.482032,489.494141 C481.482032,490.642584 481.317971,491.6748 480.989844,492.59082 C480.661718,493.506841 480.220804,494.26904 479.66709,494.877441 C479.113377,495.485843 478.446879,495.988279 477.667579,496.384766 C476.888278,496.781252 476.064556,497.068358 475.196387,497.246094 C474.328219,497.423829 473.395123,497.512695 472.397071,497.512695 C471.412691,497.512695 470.483013,497.423829 469.608008,497.246094 C468.733004,497.068358 467.902446,496.777834 467.116309,496.374512 C466.330172,495.971189 465.653421,495.465335 465.086036,494.856934 C464.51865,494.248532 464.070901,493.486333 463.742774,492.570312 C463.414647,491.654292 463.250587,490.628912 463.250587,489.494141 Z M495.166212,497.410156 C492.951357,497.410156 491.379107,496.870123 490.449415,495.790039 C489.519723,494.709956 489.02754,492.966809 488.972852,490.560547 L488.972852,477.045898 L485.630079,477.045898 L485.773633,474.790039 L488.952344,474.50293 L490.12129,469.355469 L492.377149,469.273438 L492.377149,474.50293 L498.632032,474.50293 L498.632032,477.045898 L492.377149,477.045898 L492.377149,489.945312 C492.377149,491.654305 492.636912,492.857418 493.156446,493.554688 C493.67598,494.251957 494.564643,494.600586 495.822462,494.600586 C496.273636,494.600586 497.251165,494.491212 498.755079,494.272461 L498.898633,496.979492 C497.271672,497.266603 496.027544,497.410156 495.166212,497.410156 Z M519.104298,497 L519.104298,483.40332 C519.104298,481.14745 518.745415,479.506841 518.027637,478.481445 C517.30986,477.45605 516.055478,476.943359 514.264454,476.943359 C512.541789,476.943359 511.089167,477.374019 509.906544,478.235352 C508.723921,479.096684 507.954885,480.210931 507.599415,481.578125 C507.476367,482.603521 507.414845,483.745111 507.414845,485.00293 L507.414845,497 L503.99004,497 L503.99004,465.766602 L507.414845,465.561523 L507.414845,474.708008 C507.414845,475.487309 507.387501,476.451166 507.332813,477.599609 C509.260557,475.220691 511.817172,474.03125 515.002735,474.03125 C520.020338,474.03125 522.529102,476.97751 522.529102,482.870117 L522.529102,497 L519.104298,497 Z" id="Adult-and-registered" fill="#FFFFFF"></path>
        <path d="M102.232686,116.736328 C100.496349,116.736328 98.9001733,116.356937 97.4441113,115.598145 C95.9880493,114.839352 94.8156978,113.742195 93.9270215,112.306641 C93.0383451,110.871087 92.5940136,109.237314 92.5940136,107.405273 C92.5940136,104.616197 93.5510353,102.305673 95.4651074,100.473633 C97.3791795,98.6415924 99.8811076,97.7255859 102.970967,97.7255859 C104.570584,97.7255859 106.023206,97.981931 107.328877,98.4946289 C108.634548,99.0073268 109.707779,99.7114213 110.548603,100.606934 C111.389428,101.502446 112.038836,102.548334 112.496846,103.744629 C112.954856,104.940924 113.183857,106.236321 113.183857,107.630859 C113.183857,109.585947 112.8489,111.356437 112.178975,112.942383 C111.509049,114.528328 110.353787,116.435536 108.713154,118.664062 C108.125261,119.443363 107.144313,120.694327 105.770283,122.416992 C104.396253,124.139657 103.169214,125.664056 102.089131,126.990234 L100.469014,129 L95.9572949,129 L106.846943,115.505859 C105.302014,116.326176 103.763943,116.736328 102.232686,116.736328 Z M109.307881,107.241211 C109.307881,105.368155 108.778101,103.833502 107.718525,102.637207 C106.65895,101.440912 105.117461,100.842773 103.094014,100.842773 C101.056894,100.842773 99.443629,101.468255 98.2541699,102.719238 C97.0647108,103.970221 96.4699902,105.51171 96.4699902,107.34375 C96.4699902,109.257822 97.0442032,110.789057 98.1926465,111.9375 C99.3410897,113.085943 100.933847,113.660156 102.970967,113.660156 C105.131134,113.660156 106.727309,113.065436 107.759541,111.875977 C108.791773,110.686517 109.307881,109.141611 109.307881,107.241211 Z M119.116084,110.686523 L119.116084,105.949219 L123.340693,105.949219 L123.340693,110.686523 L119.116084,110.686523 Z M119.116084,129.512695 L119.116084,124.734375 L123.340693,124.734375 L123.340693,129.512695 L119.116084,129.512695 Z M137.824678,129.47168 C135.992637,129.47168 134.362282,129.232424 132.933564,128.753906 C131.504846,128.275388 130.462376,127.721683 129.806123,127.092773 L130.95456,124.078125 C132.882304,125.595711 135.179157,126.354492 137.845185,126.354492 C139.895977,126.354492 141.526332,125.84522 142.736299,124.82666 C143.946266,123.8081 144.55124,122.382822 144.55124,120.550781 C144.55124,119.552729 144.397433,118.681156 144.089814,117.936035 C143.782196,117.190914 143.372044,116.589358 142.859346,116.131348 C142.346648,115.673338 141.690404,115.304201 140.890596,115.023926 C140.090787,114.743651 139.270483,114.545411 138.429658,114.429199 C137.588834,114.312988 136.614722,114.241211 135.507295,114.213867 C135.370575,114.213867 135.165499,114.210449 134.89206,114.203613 C134.618622,114.196777 134.413546,114.193359 134.276826,114.193359 L134.276826,111.137695 L135.302217,111.137695 C136.259253,111.124023 137.103483,111.072754 137.834932,110.983887 C138.566381,110.895019 139.297819,110.734376 140.029268,110.501953 C140.760716,110.26953 141.365691,109.961916 141.844209,109.579102 C142.322727,109.196287 142.712371,108.683597 143.013154,108.041016 C143.313937,107.398434 143.464326,106.639653 143.464326,105.764648 C143.464326,102.483382 141.584462,100.842773 137.824678,100.842773 C136.471155,100.842773 135.199684,101.041014 134.010225,101.4375 C132.820765,101.833986 131.802221,102.367184 130.95456,103.037109 L129.806123,100.042969 C131.843243,98.4980392 134.77583,97.7255859 138.603975,97.7255859 C140.148904,97.7255859 141.577601,98.0092745 142.890107,98.5766602 C144.202614,99.1440458 145.282681,100.012201 146.130342,101.181152 C146.978002,102.350104 147.401826,103.720695 147.401826,105.292969 C147.401826,107.207041 146.930151,108.779291 145.986787,110.009766 C145.043423,111.240241 143.717264,112.122068 142.008271,112.655273 C143.922343,113.065432 145.422817,113.960931 146.509736,115.341797 C147.596656,116.722663 148.140107,118.472646 148.140107,120.591797 C148.140107,123.28517 147.17625,125.438468 145.248506,127.051758 C143.320762,128.665047 140.846177,129.47168 137.824678,129.47168 Z M164.428779,129.47168 C162.610411,129.47168 161.017653,129.071781 159.650459,128.271973 C158.283265,127.472164 157.186108,126.347663 156.358955,124.898438 C155.531802,123.449212 154.916574,121.781259 154.513252,119.894531 C154.10993,118.007803 153.908271,115.909191 153.908271,113.598633 C153.908271,111.698233 154.041571,109.941414 154.308174,108.328125 C154.574777,106.714836 154.988347,105.25196 155.548896,103.939453 C156.109446,102.626947 156.803287,101.5127 157.630439,100.59668 C158.457592,99.6806595 159.445375,98.973147 160.593818,98.4741211 C161.742262,97.9750952 163.020569,97.7255859 164.428779,97.7255859 C166.178788,97.7255859 167.727112,98.1083946 169.073799,98.8740234 C170.420485,99.6396523 171.514224,100.729973 172.355049,102.14502 C173.195873,103.560066 173.828191,105.228018 174.252021,107.148926 C174.675852,109.069834 174.887764,111.219715 174.887764,113.598633 C174.887764,115.909191 174.689523,118.007803 174.293037,119.894531 C173.896551,121.781259 173.288158,123.449212 172.467842,124.898438 C171.647525,126.347663 170.557204,127.472164 169.196846,128.271973 C167.836487,129.071781 166.247148,129.47168 164.428779,129.47168 Z M164.428779,100.842773 C163.034241,100.842773 161.837964,101.393061 160.839912,102.493652 C159.84186,103.594244 159.093332,105.084463 158.594307,106.964355 C158.095281,108.844248 157.845771,111.014636 157.845771,113.475586 C157.845771,115.977552 158.095281,118.188955 158.594307,120.109863 C159.093332,122.030771 159.84186,123.551752 160.839912,124.672852 C161.837964,125.793951 163.034241,126.354492 164.428779,126.354492 C165.823317,126.354492 167.019595,125.793951 168.017646,124.672852 C169.015698,123.551752 169.764226,122.030771 170.263252,120.109863 C170.762278,118.188955 171.011787,115.977552 171.011787,113.475586 C171.011787,111.014636 170.762278,108.844248 170.263252,106.964355 C169.764226,105.084463 169.015698,103.594244 168.017646,102.493652 C167.019595,101.393061 165.823317,100.842773 164.428779,100.842773 Z M199.836201,126.703125 C201.463162,126.703125 202.895277,126.255376 204.132588,125.359863 C205.369899,124.464351 206.166277,123.25782 206.521748,121.740234 L206.521748,117.946289 C206.453388,117.946289 206.039818,117.980468 205.281025,118.048828 C204.522232,118.117188 204.026632,118.158203 203.794209,118.171875 C200.827397,118.431642 198.759547,118.916989 197.590596,119.62793 C196.421644,120.338871 195.837178,121.480461 195.837178,123.052734 C195.837178,124.255865 196.192643,125.165036 196.903584,125.780273 C197.614525,126.395511 198.592054,126.703125 199.836201,126.703125 Z M207.280537,129 C207.075458,128.124996 206.877218,127.181646 206.68581,126.169922 C205.441664,127.414069 204.27273,128.275388 203.178974,128.753906 C202.085219,129.232424 200.800076,129.47168 199.323506,129.47168 C197.218026,129.47168 195.526149,128.921392 194.247822,127.820801 C192.969495,126.720209 192.330342,125.137706 192.330342,123.073242 C192.330342,120.776356 193.201915,119.074224 194.945088,117.966797 C196.688261,116.859369 199.200442,116.168947 202.481709,115.895508 C202.932883,115.854492 203.613052,115.796387 204.522236,115.721191 C205.43142,115.645996 206.111589,115.587891 206.562764,115.546875 L206.562764,113.557617 C206.562764,111.971672 206.193627,110.795902 205.455342,110.030273 C204.717057,109.264645 203.554959,108.881836 201.969014,108.881836 C199.754159,108.881836 197.518829,109.428705 195.262959,110.522461 C195.194599,110.358398 195.016867,109.883305 194.729756,109.097168 C194.442645,108.311031 194.292256,107.904297 194.278584,107.876953 C195.276636,107.316403 196.462659,106.868654 197.836689,106.533691 C199.21072,106.198729 200.608655,106.03125 202.030537,106.03125 C204.833285,106.03125 206.853285,106.64306 208.090596,107.866699 C209.327906,109.090338 209.946553,111.17186 209.946553,114.111328 L209.946553,129 L207.280537,129 Z M245.820185,129 L245.820185,117.290039 C245.820185,116.196284 245.79626,115.280277 245.748408,114.541992 C245.700556,113.803707 245.591182,113.051762 245.420283,112.286133 C245.249384,111.520504 245.010128,110.91553 244.70251,110.471191 C244.394891,110.026853 243.967649,109.664552 243.420771,109.384277 C242.873894,109.104003 242.21765,108.963867 241.452021,108.963867 C239.948108,108.963867 238.666382,109.367183 237.606806,110.173828 C236.547231,110.980473 235.791867,112.115227 235.340693,113.578125 C235.217646,114.562505 235.156123,115.615229 235.156123,116.736328 L235.156123,129 L231.731318,129 L231.731318,116.920898 C231.731318,115.909175 231.697139,115.030765 231.628779,114.285645 C231.560419,113.540524 231.430538,112.815921 231.239131,112.111816 C231.047723,111.407711 230.791378,110.836916 230.470088,110.399414 C230.148797,109.961912 229.721555,109.613283 229.188349,109.353516 C228.655144,109.093749 228.019408,108.963867 227.281123,108.963867 C225.64049,108.963867 224.263062,109.380855 223.148799,110.214844 C222.034535,111.048832 221.286008,112.156243 220.903193,113.537109 C220.780146,114.589849 220.718623,115.731439 220.718623,116.961914 L220.718623,129 L217.293818,129 C217.266474,114.93157 217.252803,107.432622 217.252803,106.50293 L220.123896,106.50293 L220.55456,109.722656 C221.238158,108.683589 222.208851,107.808597 223.46667,107.097656 C224.724489,106.386715 226.153185,106.03125 227.752803,106.03125 C228.586791,106.03125 229.355826,106.116698 230.059931,106.287598 C230.764037,106.458497 231.351921,106.673827 231.823603,106.933594 C232.295285,107.193361 232.715691,107.504393 233.084834,107.866699 C233.453976,108.229006 233.741083,108.584471 233.946162,108.933105 C234.151241,109.28174 234.322138,109.647459 234.458857,110.030273 C236.09949,107.364244 238.608254,106.03125 241.985224,106.03125 C244.48719,106.03125 246.322621,106.745598 247.491572,108.174316 C248.660523,109.603034 249.24499,111.718736 249.24499,114.521484 L249.24499,129 L245.820185,129 Z M91.0094434,282.320312 L94.2701855,282.320312 L94.2701855,313 L90.6403027,313 L90.6403027,286.114258 C89.2594364,287.016606 87.5709768,287.789059 85.574873,288.431641 L85.574873,285.006836 C85.7936241,284.911132 86.2379556,284.719728 86.9078809,284.432617 C87.5778061,284.145506 88.0802425,283.926759 88.4152051,283.776367 C88.7501677,283.625976 89.1705736,283.414064 89.6764355,283.140625 C90.1822974,282.867186 90.6266289,282.593751 91.0094434,282.320312 Z M105.247334,282.320312 L108.508076,282.320312 L108.508076,313 L104.878193,313 L104.878193,286.114258 C103.497327,287.016606 101.808867,287.789059 99.8127636,288.431641 L99.8127636,285.006836 C100.031515,284.911132 100.475846,284.719728 101.145771,284.432617 C101.815697,284.145506 102.318133,283.926759 102.653096,283.776367 C102.988058,283.625976 103.408464,283.414064 103.914326,283.140625 C104.420188,282.867186 104.86452,282.593751 105.247334,282.320312 Z M116.286006,294.686523 L116.286006,289.949219 L120.510615,289.949219 L120.510615,294.686523 L116.286006,294.686523 Z M116.286006,313.512695 L116.286006,308.734375 L120.510615,308.734375 L120.510615,313.512695 L116.286006,313.512695 Z M137.578584,313.47168 C135.760215,313.47168 134.167458,313.071781 132.800264,312.271973 C131.433069,311.472164 130.335912,310.347663 129.50876,308.898438 C128.681607,307.449212 128.066379,305.781259 127.663057,303.894531 C127.259734,302.007803 127.058076,299.909191 127.058076,297.598633 C127.058076,295.698233 127.191376,293.941414 127.457978,292.328125 C127.724581,290.714836 128.138151,289.25196 128.698701,287.939453 C129.259251,286.626947 129.953091,285.5127 130.780244,284.59668 C131.607397,283.680659 132.59518,282.973147 133.743623,282.474121 C134.892066,281.975095 136.170374,281.725586 137.578584,281.725586 C139.328593,281.725586 140.876917,282.108395 142.223603,282.874023 C143.57029,283.639652 144.664029,284.729973 145.504853,286.14502 C146.345678,287.560066 146.977996,289.228018 147.401826,291.148926 C147.825656,293.069834 148.037568,295.219715 148.037568,297.598633 C148.037568,299.909191 147.839328,302.007803 147.442842,303.894531 C147.046355,305.781259 146.437963,307.449212 145.617646,308.898438 C144.79733,310.347663 143.707009,311.472164 142.34665,312.271973 C140.986292,313.071781 139.396952,313.47168 137.578584,313.47168 Z M137.578584,284.842773 C136.184046,284.842773 134.987769,285.393061 133.989717,286.493652 C132.991665,287.594244 132.243137,289.084463 131.744111,290.964355 C131.245085,292.844248 130.995576,295.014636 130.995576,297.475586 C130.995576,299.977552 131.245085,302.188955 131.744111,304.109863 C132.243137,306.030771 132.991665,307.551752 133.989717,308.672852 C134.987769,309.793951 136.184046,310.354492 137.578584,310.354492 C138.973122,310.354492 140.169399,309.793951 141.167451,308.672852 C142.165503,307.551752 142.914031,306.030771 143.413057,304.109863 C143.912082,302.188955 144.161592,299.977552 144.161592,297.475586 C144.161592,295.014636 143.912082,292.844248 143.413057,290.964355 C142.914031,289.084463 142.165503,287.594244 141.167451,286.493652 C140.169399,285.393061 138.973122,284.842773 137.578584,284.842773 Z M164.428779,313.47168 C162.610411,313.47168 161.017653,313.071781 159.650459,312.271973 C158.283265,311.472164 157.186108,310.347663 156.358955,308.898438 C155.531802,307.449212 154.916574,305.781259 154.513252,303.894531 C154.10993,302.007803 153.908271,299.909191 153.908271,297.598633 C153.908271,295.698233 154.041571,293.941414 154.308174,292.328125 C154.574777,290.714836 154.988347,289.25196 155.548896,287.939453 C156.109446,286.626947 156.803287,285.5127 157.630439,284.59668 C158.457592,283.680659 159.445375,282.973147 160.593818,282.474121 C161.742262,281.975095 163.020569,281.725586 164.428779,281.725586 C166.178788,281.725586 167.727112,282.108395 169.073799,282.874023 C170.420485,283.639652 171.514224,284.729973 172.355049,286.14502 C173.195873,287.560066 173.828191,289.228018 174.252021,291.148926 C174.675852,293.069834 174.887764,295.219715 174.887764,297.598633 C174.887764,299.909191 174.689523,302.007803 174.293037,303.894531 C173.896551,305.781259 173.288158,307.449212 172.467842,308.898438 C171.647525,310.347663 170.557204,311.472164 169.196846,312.271973 C167.836487,313.071781 166.247148,313.47168 164.428779,313.47168 Z M164.428779,284.842773 C163.034241,284.842773 161.837964,285.393061 160.839912,286.493652 C159.84186,287.594244 159.093332,289.084463 158.594307,290.964355 C158.095281,292.844248 157.845771,295.014636 157.845771,297.475586 C157.845771,299.977552 158.095281,302.188955 158.594307,304.109863 C159.093332,306.030771 159.84186,307.551752 160.839912,308.672852 C161.837964,309.793951 163.034241,310.354492 164.428779,310.354492 C165.823317,310.354492 167.019595,309.793951 168.017646,308.672852 C169.015698,307.551752 169.764226,306.030771 170.263252,304.109863 C170.762278,302.188955 171.011787,299.977552 171.011787,297.475586 C171.011787,295.014636 170.762278,292.844248 170.263252,290.964355 C169.764226,289.084463 169.015698,287.594244 168.017646,286.493652 C167.019595,285.393061 165.823317,284.842773 164.428779,284.842773 Z M199.836201,310.703125 C201.463162,310.703125 202.895277,310.255376 204.132588,309.359863 C205.369899,308.464351 206.166277,307.25782 206.521748,305.740234 L206.521748,301.946289 C206.453388,301.946289 206.039818,301.980468 205.281025,302.048828 C204.522232,302.117188 204.026632,302.158203 203.794209,302.171875 C200.827397,302.431642 198.759547,302.916989 197.590596,303.62793 C196.421644,304.338871 195.837178,305.480461 195.837178,307.052734 C195.837178,308.255865 196.192643,309.165036 196.903584,309.780273 C197.614525,310.395511 198.592054,310.703125 199.836201,310.703125 Z M207.280537,313 C207.075458,312.124996 206.877218,311.181646 206.68581,310.169922 C205.441664,311.414069 204.27273,312.275388 203.178974,312.753906 C202.085219,313.232424 200.800076,313.47168 199.323506,313.47168 C197.218026,313.47168 195.526149,312.921392 194.247822,311.820801 C192.969495,310.720209 192.330342,309.137706 192.330342,307.073242 C192.330342,304.776356 193.201915,303.074224 194.945088,301.966797 C196.688261,300.859369 199.200442,300.168947 202.481709,299.895508 C202.932883,299.854492 203.613052,299.796387 204.522236,299.721191 C205.43142,299.645996 206.111589,299.587891 206.562764,299.546875 L206.562764,297.557617 C206.562764,295.971672 206.193627,294.795902 205.455342,294.030273 C204.717057,293.264645 203.554959,292.881836 201.969014,292.881836 C199.754159,292.881836 197.518829,293.428705 195.262959,294.522461 C195.194599,294.358398 195.016867,293.883305 194.729756,293.097168 C194.442645,292.311031 194.292256,291.904297 194.278584,291.876953 C195.276636,291.316403 196.462659,290.868654 197.836689,290.533691 C199.21072,290.198729 200.608655,290.03125 202.030537,290.03125 C204.833285,290.03125 206.853285,290.64306 208.090596,291.866699 C209.327906,293.090338 209.946553,295.17186 209.946553,298.111328 L209.946553,313 L207.280537,313 Z M245.820185,313 L245.820185,301.290039 C245.820185,300.196284 245.79626,299.280277 245.748408,298.541992 C245.700556,297.803707 245.591182,297.051762 245.420283,296.286133 C245.249384,295.520504 245.010128,294.91553 244.70251,294.471191 C244.394891,294.026853 243.967649,293.664552 243.420771,293.384277 C242.873894,293.104003 242.21765,292.963867 241.452021,292.963867 C239.948108,292.963867 238.666382,293.367183 237.606806,294.173828 C236.547231,294.980473 235.791867,296.115227 235.340693,297.578125 C235.217646,298.562505 235.156123,299.615229 235.156123,300.736328 L235.156123,313 L231.731318,313 L231.731318,300.920898 C231.731318,299.909175 231.697139,299.030765 231.628779,298.285645 C231.560419,297.540524 231.430538,296.815921 231.239131,296.111816 C231.047723,295.407711 230.791378,294.836916 230.470088,294.399414 C230.148797,293.961912 229.721555,293.613283 229.188349,293.353516 C228.655144,293.093749 228.019408,292.963867 227.281123,292.963867 C225.64049,292.963867 224.263062,293.380855 223.148799,294.214844 C222.034535,295.048832 221.286008,296.156243 220.903193,297.537109 C220.780146,298.589849 220.718623,299.731439 220.718623,300.961914 L220.718623,313 L217.293818,313 C217.266474,298.93157 217.252803,291.432622 217.252803,290.50293 L220.123896,290.50293 L220.55456,293.722656 C221.238158,292.683589 222.208851,291.808597 223.46667,291.097656 C224.724489,290.386715 226.153185,290.03125 227.752803,290.03125 C228.586791,290.03125 229.355826,290.116698 230.059931,290.287598 C230.764037,290.458497 231.351921,290.673827 231.823603,290.933594 C232.295285,291.193361 232.715691,291.504393 233.084834,291.866699 C233.453976,292.229006 233.741083,292.584471 233.946162,292.933105 C234.151241,293.28174 234.322138,293.647459 234.458857,294.030273 C236.09949,291.364244 238.608254,290.03125 241.985224,290.03125 C244.48719,290.03125 246.322621,290.745598 247.491572,292.174316 C248.660523,293.603034 249.24499,295.718736 249.24499,298.521484 L249.24499,313 L245.820185,313 Z M94.9578808,466.320312 L98.218623,466.320312 L98.218623,497 L94.5887402,497 L94.5887402,470.114258 C93.2078739,471.016606 91.5194142,471.789059 89.5233105,472.431641 L89.5233105,469.006836 C89.7420616,468.911132 90.1863931,468.719728 90.8563183,468.432617 C91.5262435,468.145506 92.0286799,467.926759 92.3636425,467.776367 C92.6986051,467.625976 93.1190111,467.414064 93.624873,467.140625 C94.1307349,466.867186 94.5750664,466.593751 94.9578808,466.320312 Z M105.319795,497 L104.848115,493.636719 L115.450654,481.865234 C116.161595,481.072262 116.8486,480.046881 117.511689,478.789062 C118.174779,477.531244 118.656707,476.464848 118.95749,475.589844 L119.42917,474.297852 C119.42917,472.602531 118.957495,471.286626 118.014131,470.350098 C117.070767,469.41357 115.730936,468.945312 113.9946,468.945312 C111.096148,468.945312 108.812967,469.786124 107.14499,471.467773 L105.955537,468.391602 C107.842265,466.614249 110.603956,465.725586 114.240693,465.725586 C117.02977,465.725586 119.251427,466.480949 120.905732,467.991699 C122.560037,469.502449 123.387178,471.522448 123.387178,474.051758 C123.33249,474.243165 123.250459,474.49951 123.141084,474.820801 C123.031708,475.142091 122.795871,475.767573 122.433564,476.697266 C122.071258,477.626958 121.691867,478.508785 121.295381,479.342773 C120.898894,480.176762 120.396458,481.092768 119.788057,482.09082 C119.179655,483.088872 118.561009,483.922848 117.9321,484.592773 L109.277803,493.841797 L123.489717,493.841797 L123.264131,497 L105.319795,497 Z M130.283271,478.686523 L130.283271,473.949219 L134.507881,473.949219 L134.507881,478.686523 L130.283271,478.686523 Z M130.283271,497.512695 L130.283271,492.734375 L134.507881,492.734375 L134.507881,497.512695 L130.283271,497.512695 Z M148.991865,497.47168 C147.159825,497.47168 145.52947,497.232424 144.100752,496.753906 C142.672034,496.275388 141.629564,495.721683 140.97331,495.092773 L142.121748,492.078125 C144.049492,493.595711 146.346344,494.354492 149.012373,494.354492 C151.063164,494.354492 152.693519,493.84522 153.903486,492.82666 C155.113453,491.8081 155.718428,490.382822 155.718428,488.550781 C155.718428,487.552729 155.564621,486.681156 155.257002,485.936035 C154.949383,485.190914 154.539231,484.589358 154.026533,484.131348 C153.513835,483.673338 152.857592,483.304201 152.057783,483.023926 C151.257974,482.743651 150.43767,482.545411 149.596846,482.429199 C148.756021,482.312988 147.78191,482.241211 146.674482,482.213867 C146.537763,482.213867 146.332687,482.210449 146.059248,482.203613 C145.785809,482.196777 145.580733,482.193359 145.444014,482.193359 L145.444014,479.137695 L146.469404,479.137695 C147.42644,479.124023 148.27067,479.072754 149.002119,478.983887 C149.733568,478.895019 150.465006,478.734376 151.196455,478.501953 C151.927904,478.26953 152.532878,477.961916 153.011396,477.579102 C153.489914,477.196287 153.879559,476.683597 154.180342,476.041016 C154.481124,475.398434 154.631514,474.639653 154.631514,473.764648 C154.631514,470.483382 152.75165,468.842773 148.991865,468.842773 C147.638343,468.842773 146.366871,469.041014 145.177412,469.4375 C143.987953,469.833986 142.969408,470.367184 142.121748,471.037109 L140.97331,468.042969 C143.01043,466.498039 145.943018,465.725586 149.771162,465.725586 C151.316092,465.725586 152.744788,466.009275 154.057295,466.57666 C155.369801,467.144046 156.449869,468.012201 157.297529,469.181152 C158.14519,470.350104 158.569014,471.720695 158.569014,473.292969 C158.569014,475.207041 158.097339,476.779291 157.153974,478.009766 C156.21061,479.240241 154.884452,480.122068 153.175459,480.655273 C155.089531,481.065432 156.590004,481.960931 157.676924,483.341797 C158.763843,484.722663 159.307295,486.472646 159.307295,488.591797 C159.307295,491.28517 158.343437,493.438468 156.415693,495.051758 C154.487949,496.665047 152.013365,497.47168 148.991865,497.47168 Z M175.595967,497.47168 C173.777598,497.47168 172.184841,497.071781 170.817646,496.271973 C169.450452,495.472164 168.353295,494.347663 167.526142,492.898438 C166.69899,491.449212 166.083762,489.781259 165.680439,487.894531 C165.277117,486.007803 165.075459,483.909191 165.075459,481.598633 C165.075459,479.698233 165.208758,477.941414 165.475361,476.328125 C165.741964,474.714836 166.155534,473.25196 166.716084,471.939453 C167.276634,470.626947 167.970474,469.5127 168.797627,468.59668 C169.624779,467.680659 170.612562,466.973147 171.761006,466.474121 C172.909449,465.975095 174.187756,465.725586 175.595967,465.725586 C177.345975,465.725586 178.8943,466.108395 180.240986,466.874023 C181.587673,467.639652 182.681412,468.729973 183.522236,470.14502 C184.363061,471.560066 184.995379,473.228018 185.419209,475.148926 C185.843039,477.069834 186.054951,479.219715 186.054951,481.598633 C186.054951,483.909191 185.856711,486.007803 185.460224,487.894531 C185.063738,489.781259 184.455346,491.449212 183.635029,492.898438 C182.814713,494.347663 181.724391,495.472164 180.364033,496.271973 C179.003675,497.071781 177.414335,497.47168 175.595967,497.47168 Z M175.595967,468.842773 C174.201428,468.842773 173.005151,469.393061 172.007099,470.493652 C171.009048,471.594244 170.26052,473.084463 169.761494,474.964355 C169.262468,476.844248 169.012959,479.014636 169.012959,481.475586 C169.012959,483.977552 169.262468,486.188955 169.761494,488.109863 C170.26052,490.030771 171.009048,491.551752 172.007099,492.672852 C173.005151,493.793951 174.201428,494.354492 175.595967,494.354492 C176.990505,494.354492 178.186782,493.793951 179.184834,492.672852 C180.182886,491.551752 180.931413,490.030771 181.430439,488.109863 C181.929465,486.188955 182.178974,483.977552 182.178974,481.475586 C182.178974,479.014636 181.929465,476.844248 181.430439,474.964355 C180.931413,473.084463 180.182886,471.594244 179.184834,470.493652 C178.186782,469.393061 176.990505,468.842773 175.595967,468.842773 Z M192.62292,506.761719 L192.62292,474.50293 L195.637568,474.50293 L195.965693,477.558594 C197.934453,475.207019 200.299664,474.03125 203.061396,474.03125 C205.112188,474.03125 206.848499,474.54394 208.270381,475.569336 C209.692263,476.594732 210.741569,477.982413 211.41833,479.732422 C212.095091,481.482431 212.433467,483.526355 212.433467,485.864258 C212.433467,488.106457 212.06433,490.099112 211.326045,491.842285 C210.58776,493.585458 209.504275,494.959468 208.075556,495.964355 C206.646838,496.969243 204.975468,497.47168 203.061396,497.47168 C201.61217,497.47168 200.251832,497.146976 198.980342,496.497559 C197.708851,495.848141 196.690306,494.99024 195.924678,493.923828 C196.006709,495.400398 196.047724,496.835931 196.047724,498.230469 L196.047724,506.536133 L192.62292,506.761719 Z M202.589717,494.580078 C203.628784,494.580078 204.558463,494.344241 205.378779,493.872559 C206.199096,493.400877 206.862175,492.754887 207.368037,491.93457 C207.873899,491.114254 208.256708,490.181158 208.516474,489.135254 C208.776241,488.08935 208.906123,486.958014 208.906123,485.741211 C208.906123,483.170886 208.366089,481.06202 207.286006,479.414551 C206.205922,477.767082 204.626836,476.943359 202.548701,476.943359 C198.201023,476.943359 196.027217,479.752902 196.027217,485.37207 C196.027217,488.420914 196.536489,490.717766 197.555049,492.262695 C198.573608,493.807625 200.251814,494.580078 202.589717,494.580078 Z M247.220185,497 L247.220185,485.290039 C247.220185,484.196284 247.19626,483.280277 247.148408,482.541992 C247.100556,481.803707 246.991182,481.051762 246.820283,480.286133 C246.649384,479.520504 246.410128,478.91553 246.10251,478.471191 C245.794891,478.026853 245.367649,477.664552 244.820771,477.384277 C244.273894,477.104003 243.61765,476.963867 242.852021,476.963867 C241.348108,476.963867 240.066382,477.367183 239.006806,478.173828 C237.947231,478.980473 237.191867,480.115227 236.740693,481.578125 C236.617646,482.562505 236.556123,483.615229 236.556123,484.736328 L236.556123,497 L233.131318,497 L233.131318,484.920898 C233.131318,483.909175 233.097139,483.030765 233.028779,482.285645 C232.960419,481.540524 232.830538,480.815921 232.639131,480.111816 C232.447723,479.407711 232.191378,478.836916 231.870088,478.399414 C231.548797,477.961912 231.121555,477.613283 230.588349,477.353516 C230.055144,477.093749 229.419408,476.963867 228.681123,476.963867 C227.04049,476.963867 225.663062,477.380855 224.548799,478.214844 C223.434535,479.048832 222.686008,480.156243 222.303193,481.537109 C222.180146,482.589849 222.118623,483.731439 222.118623,484.961914 L222.118623,497 L218.693818,497 C218.666474,482.93157 218.652803,475.432622 218.652803,474.50293 L221.523896,474.50293 L221.95456,477.722656 C222.638158,476.683589 223.608851,475.808597 224.86667,475.097656 C226.124489,474.386715 227.553185,474.03125 229.152803,474.03125 C229.986791,474.03125 230.755826,474.116698 231.459931,474.287598 C232.164037,474.458497 232.751921,474.673827 233.223603,474.933594 C233.695285,475.193361 234.115691,475.504393 234.484834,475.866699 C234.853976,476.229006 235.141083,476.584471 235.346162,476.933105 C235.551241,477.28174 235.722138,477.647459 235.858857,478.030273 C237.49949,475.364244 240.008254,474.03125 243.385224,474.03125 C245.88719,474.03125 247.722621,474.745598 248.891572,476.174316 C250.060523,477.603034 250.64499,479.718736 250.64499,482.521484 L250.64499,497 L247.220185,497 Z" id="9:30-am-11:00-am-12:" fill="#7098F5"></path>
        <path d="M300.107383,0.369127517 L300.107383,593.718097" id="Line" stroke="#7098F5" stroke-width="6" stroke-linecap="square"></path>
        <circle id="Oval" fill="#7098F5" cx="300.5" cy="113.5" r="13.5"></circle>
        <circle id="Oval-Copy" fill="#7098F5" cx="300.5" cy="298.5" r="13.5"></circle>
        <circle id="Oval-Copy-2" fill="#7098F5" cx="300.5" cy="482.5" r="13.5"></circle>
    </g>
</svg>